<?xml version="1.0" standalone="no"?><!DOCTYPE svg PUBLIC "-//W3C//DTD SVG 1.1//EN" "http://www.w3.org/Graphics/SVG/1.1/DTD/svg11.dtd"><svg t="1558768525332" class="icon" style="" viewBox="0 0 3072 1024" version="1.1" xmlns="http://www.w3.org/2000/svg" p-id="873" xmlns:xlink="http://www.w3.org/1999/xlink" width="600" height="200"><defs><style type="text/css"></style></defs><path d="M581.973333 47.786667C334.506667 47.786667 134.826667 249.173333 134.826667 494.933333c0 245.76 201.386667 447.146667 447.146666 447.146667 245.76 0 447.146667-201.386667 447.146667-447.146667 0-245.76-201.386667-447.146667-447.146667-447.146666z m0 877.226666C344.746667 925.013333 150.186667 732.16 150.186667 494.933333 150.186667 257.706667 343.04 64.853333 580.266667 64.853333c237.226667 0 430.08 192.853333 430.08 430.08 1.706667 237.226667-192.853333 430.08-428.373334 430.08z" fill="#ffffff" p-id="874"></path><path d="M293.546667 484.693333v-3.413333c8.533333-151.893333 134.826667-274.773333 288.426666-274.773333 157.013333 0 285.013333 126.293333 290.133334 281.6h11.946666c-3.413333-162.133333-138.24-293.546667-302.08-293.546667-162.133333 0-293.546667 129.706667-300.373333 290.133333v3.413334l11.946667-3.413334z" fill="#ffffff" p-id="875"></path><path d="M353.28 187.733333l11.946667 27.306667 11.946666-8.533333zM756.053333 175.786667c3.413333 1.706667 6.826667 1.706667 10.24 1.706666 3.413333 0 6.826667-3.413333 8.533334-8.533333 1.706667-3.413333 3.413333-6.826667 1.706666-10.24 0-3.413333-3.413333-6.826667-8.533333-8.533333l-3.413333-1.706667h-1.706667s-1.706667 0-1.706667 1.706667l-11.946666 20.48 6.826666 5.12z" fill="#ffffff" p-id="876"></path><path d="M785.066667 715.093333c-3.413333 0-15.36 11.946667-32.426667 23.893334-11.946667 8.533333-30.72 18.773333-30.72 18.773333-40.96 22.186667-88.746667 34.133333-138.24 34.133333-51.2 0-105.813333-15.36-148.48-37.546666-17.066667-10.24-40.96-27.306667-51.2-39.253334h-17.066667c1.706667 1.706667 8.533333 10.24 17.066667 18.773334 10.24 8.533333 23.893333 18.773333 23.893333 20.48 49.493333 32.426667 109.226667 52.906667 174.08 52.906666 64.853333 0 126.293333-20.48 175.786667-54.613333 0 0 15.36-11.946667 29.013333-20.48 8.533333-6.826667 15.36-11.946667 18.773334-15.36h-6.826667l-13.653333-1.706667z" fill="#ffffff" p-id="877"></path><path d="M655.36 759.466667H645.12s3.413333 1.706667 6.826667 1.706666c1.706667 0 3.413333 0 3.413333-1.706666 3.413333 0 5.12 0 5.12-1.706667 1.706667-1.706667 1.706667-1.706667 1.706667-3.413333s0-1.706667-1.706667-3.413334c0 0-1.706667-1.706667-3.413333-1.706666 1.706667-1.706667 3.413333-1.706667 3.413333-1.706667l1.706667-1.706667c0-1.706667 0-1.706667-1.706667-3.413333-1.706667 0-3.413333-1.706667-5.12-1.706667-3.413333 0-5.12 1.706667-8.533333 3.413334v1.706666l1.706666-1.706666c1.706667 0 1.706667-1.706667 3.413334-1.706667 3.413333 0 5.12 1.706667 5.12 3.413333s0 1.706667-1.706667 3.413334c-1.706667 0-3.413333 1.706667-5.12 1.706666h5.12c1.706667 0 1.706667 1.706667 3.413333 1.706667 1.706667 1.706667 1.706667 3.413333 0 5.12-1.706667 0-1.706667 0-3.413333 1.706667zM602.453333 759.466667h-3.413333c5.12 0 8.533333-1.706667 11.946667-3.413334h1.706666c5.12-3.413333 6.826667-6.826667 5.12-11.946666 0-1.706667-1.706667-1.706667-1.706666-3.413334-1.706667-1.706667-3.413333-3.413333-8.533334-3.413333-3.413333 0-5.12 0-6.826666 1.706667-3.413333 3.413333-3.413333 5.12-3.413334 6.826666 0 1.706667 0 1.706667 1.706667 3.413334 0 1.706667 1.706667 1.706667 3.413333 1.706666 1.706667 1.706667 5.12 1.706667 8.533334 0 0 0 1.706667 0 3.413333-1.706666-5.12 6.826667-6.826667 8.533333-11.946667 10.24z m5.12-8.533334h-1.706666c-1.706667 0-1.706667-1.706667-3.413334-1.706666 0-1.706667-1.706667-1.706667-1.706666-3.413334v-3.413333c0-1.706667 1.706667-1.706667 5.12-1.706667 1.706667 0 3.413333 0 5.12 1.706667 1.706667 1.706667 1.706667 3.413333 1.706666 8.533333h-5.12zM510.293333 759.466667h-3.413333 11.946667-1.706667-1.706667v-20.48l-8.533333 1.706666H512v13.653334c-1.706667 3.413333-1.706667 5.12-1.706667 5.12zM551.253333 756.053333c0 1.706667 0 3.413333 1.706667 3.413334 1.706667 1.706667 3.413333 1.706667 6.826667 1.706666s5.12 0 6.826666-1.706666c1.706667-1.706667 1.706667-1.706667 1.706667-3.413334s-1.706667-3.413333-5.12-5.12h-1.706667c1.706667 0 3.413333-1.706667 5.12-1.706666 1.706667-1.706667 1.706667-1.706667 1.706667-3.413334s0-1.706667-1.706667-3.413333-3.413333-1.706667-6.826666-1.706667h-5.12c-3.413333 0-3.413333 1.706667-3.413334 5.12 0 1.706667 0 1.706667 1.706667 3.413334 0 0 1.706667 1.706667 3.413333 1.706666-3.413333 1.706667-5.12 3.413333-5.12 5.12z m5.12-10.24c-1.706667-1.706667-1.706667-1.706667-1.706666-3.413333 0 0 0-1.706667 1.706666-1.706667s1.706667-1.706667 5.12-1.706666c1.706667 0 3.413333 0 3.413334 1.706666l1.706666 1.706667c0 1.706667 0 3.413333-1.706666 3.413333s-1.706667 1.706667-3.413334 1.706667-3.413333 0-5.12-1.706667z m-1.706666 6.826667s1.706667-1.706667 3.413333-1.706667c3.413333 1.706667 5.12 1.706667 5.12 3.413334 1.706667 1.706667 1.706667 1.706667 1.706667 3.413333v1.706667c-1.706667 1.706667-3.413333 1.706667-5.12 1.706666-1.706667 0-3.413333 0-5.12-1.706666v-1.706667-5.12z" fill="#ffffff" p-id="878"></path><path d="M2715.306667 781.653333v8.533334c6.826667 0 10.24 1.706667 11.946666 1.706666l1.706667 1.706667v102.4c0 3.413333 0 6.826667-1.706667 6.826667-1.706667 1.706667-5.12 1.706667-11.946666 1.706666v8.533334h51.2V904.533333c-6.826667 0-10.24-1.706667-10.24-1.706666-1.706667 0-1.706667-1.706667-1.706667-1.706667 0-1.706667-1.706667-6.826667-1.706667-17.066667v-51.2-37.546666c0-3.413333 1.706667-5.12 1.706667-5.12 1.706667 0 5.12-1.706667 11.946667-1.706667v-8.533333h-27.306667c-5.12 3.413333-13.653333 3.413333-23.893333 1.706666zM2824.533333 783.36c-15.36 0-32.426667 0-49.493333-1.706667h-1.706667c0 8.533333 1.706667 18.773333 1.706667 30.72h6.826667c0-10.24 1.706667-15.36 1.706666-17.066666 0 0 0-1.706667 1.706667-1.706667 0 0 1.706667 0 5.12-1.706667H2814.293333v75.093334c0 17.066667 0 27.306667-1.706666 29.013333 0 1.706667 0 3.413333-1.706667 3.413333 0 0-1.706667 1.706667-3.413333 1.706667-3.413333 0-6.826667 1.706667-10.24 1.706667v8.533333h52.906666v-8.533333c-6.826667 0-11.946667-1.706667-11.946666-1.706667-1.706667-1.706667-1.706667-3.413333-1.706667-6.826667v-97.28-5.12h1.706667c11.946667 0 20.48 0 25.6 1.706667 1.706667 0 1.706667 0 1.706666 1.706667s1.706667 6.826667 1.706667 17.066666h6.826667c0-11.946667 1.706667-22.186667 1.706666-30.72l-1.706666-1.706666c-15.36 3.413333-34.133333 3.413333-49.493334 3.413333zM1856.853333 781.653333v8.533334c6.826667 0 10.24 1.706667 11.946667 1.706666 1.706667 0 1.706667 1.706667 1.706667 1.706667 0 1.706667 1.706667 5.12 1.706666 11.946667V878.933333c-6.826667-10.24-17.066667-22.186667-25.6-35.84-15.36-22.186667-29.013333-40.96-40.96-59.733333h-34.133333v8.533333c6.826667 0 10.24 1.706667 11.946667 1.706667l1.706666 1.706667c0 1.706667 1.706667 8.533333 1.706667 18.773333V887.466667c0 8.533333 0 13.653333-1.706667 15.36 0 1.706667-1.706667 1.706667-1.706666 1.706666-1.706667 0-5.12 1.706667-11.946667 1.706667v8.533333h39.253333v-8.533333c-6.826667 0-10.24-1.706667-11.946666-1.706667l-1.706667-1.706666c0-1.706667-1.706667-6.826667-1.706667-18.773334V810.666667c6.826667 8.533333 13.653333 20.48 23.893334 34.133333 18.773333 27.306667 35.84 49.493333 49.493333 68.266667 3.413333 0 6.826667 1.706667 13.653333 3.413333l1.706667-1.706667v-105.813333-15.36c0-1.706667 0-1.706667 1.706667-1.706667l1.706666-1.706666c1.706667 0 5.12-1.706667 10.24-1.706667v-8.533333H1877.333333c-8.533333 3.413333-15.36 3.413333-20.48 1.706666zM1744.213333 882.346667l-35.84-100.693334h-11.946666l-27.306667 81.92c-5.12 15.36-8.533333 25.6-11.946667 34.133334l-3.413333 6.826666c-1.706667 1.706667-3.413333 1.706667-8.533333 1.706667v8.533333h35.84v-8.533333c-6.826667 0-10.24-1.706667-11.946667-1.706667-1.706667 0-1.706667-1.706667-1.706667-3.413333v-3.413333c1.706667-5.12 1.706667-10.24 3.413334-13.653334l3.413333-10.24H1715.2l5.12 15.36c1.706667 6.826667 3.413333 10.24 3.413333 11.946667 0 1.706667 0 1.706667-1.706666 3.413333-1.706667 0-5.12 1.706667-10.24 1.706667v8.533333h49.493333v-8.533333c-5.12 0-8.533333-1.706667-10.24-1.706667s-1.706667-8.533333-6.826667-22.186666z m-49.493333-18.773334h-15.36l17.066667-47.786666 17.066666 47.786666h-18.773333zM1460.906667 781.653333v8.533334c6.826667 0 10.24 1.706667 11.946666 1.706666l1.706667 1.706667c0 1.706667 1.706667 6.826667 1.706667 13.653333v34.133334c0 20.48 0 32.426667-1.706667 39.253333-1.706667 5.12-5.12 10.24-8.533333 13.653333-5.12 3.413333-10.24 5.12-18.773334 5.12-6.826667 0-11.946667-1.706667-17.066666-5.12-3.413333-1.706667-6.826667-5.12-8.533334-10.24-5.12-3.413333-5.12-10.24-5.12-20.48v-35.84-30.72c0-1.706667 0-3.413333 1.706667-5.12l1.706667-1.706666c1.706667-1.706667 5.12-1.706667 10.24-1.706667v-8.533333h-51.2v8.533333c5.12 0 8.533333 1.706667 10.24 1.706667 1.706667 0 1.706667 1.706667 1.706666 1.706666 0 1.706667 1.706667 5.12 1.706667 8.533334v68.266666c0 11.946667 1.706667 18.773333 5.12 25.6 3.413333 5.12 8.533333 10.24 15.36 13.653334 6.826667 3.413333 15.36 5.12 27.306667 5.12 10.24 0 18.773333-1.706667 25.6-5.12 6.826667-3.413333 11.946667-8.533333 15.36-15.36 3.413333-6.826667 5.12-13.653333 5.12-22.186667v-22.186667c0-17.066667 0-34.133333 1.706666-47.786666 0-5.12 1.706667-8.533333 1.706667-10.24 1.706667-1.706667 5.12-1.706667 10.24-1.706667v-8.533333h-18.773333c-6.826667 3.413333-13.653333 3.413333-20.48 1.706666zM1580.373333 781.653333v8.533334c6.826667 0 11.946667 1.706667 11.946667 1.706666 1.706667 0 1.706667 3.413333 1.706667 6.826667v40.96h-49.493334v-8.533333-27.306667c0-6.826667 0-10.24 1.706667-10.24 0 0 0-1.706667 1.706667-1.706667s5.12-1.706667 11.946666-1.706666v-8.533334h-52.906666v8.533334c6.826667 0 11.946667 1.706667 11.946666 1.706666l1.706667 1.706667v105.813333c0 1.706667-1.706667 3.413333-1.706667 5.12-1.706667 0-5.12 1.706667-11.946666 1.706667v8.533333h51.2v-8.533333c-6.826667 0-11.946667-1.706667-11.946667-1.706667-1.706667-1.706667-1.706667-3.413333-1.706667-10.24v-44.373333h51.2v46.08c0 3.413333 0 6.826667-1.706666 6.826667-1.706667 1.706667-5.12 1.706667-11.946667 1.706666v8.533334h51.2V904.533333c-6.826667 0-10.24-1.706667-11.946667-1.706666 0 0-1.706667-1.706667-1.706666-3.413334v-59.733333-34.133333c0-8.533333 0-13.653333 1.706666-15.36 0 0 0-1.706667 1.706667-1.706667s5.12-1.706667 11.946667-1.706667v-8.533333h-25.6c-6.826667 5.12-15.36 5.12-29.013334 3.413333z" p-id="879" fill="#ffffff"></path><path d="M1343.146667 781.653333v8.533334c6.826667 0 10.24 0 11.946666 1.706666 1.706667 0 1.706667 1.706667 1.706667 3.413334 0 5.12-1.706667 13.653333-5.12 25.6l-13.653333 58.026666-32.426667-98.986666H1297.066667c-3.413333 8.533333-8.533333 23.893333-17.066667 42.666666l-20.48 49.493334-8.533333-49.493334c-3.413333-18.773333-5.12-29.013333-5.12-30.72 0-1.706667 0-3.413333 1.706666-3.413333s5.12-1.706667 10.24-1.706667v-8.533333h-47.786666v8.533333c5.12 0 8.533333 1.706667 8.533333 1.706667 1.706667 1.706667 1.706667 3.413333 3.413333 8.533333l8.533334 44.373334c6.826667 39.253333 11.946667 63.146667 13.653333 71.68h11.946667c5.12-13.653333 10.24-29.013333 17.066666-44.373334l20.48-51.2 32.426667 95.573334h15.36l11.946667-54.613334c6.826667-32.426667 11.946667-52.906667 13.653333-59.733333 1.706667-5.12 1.706667-6.826667 3.413333-8.533333 1.706667-1.706667 3.413333-1.706667 8.533334-1.706667v-8.533333h-17.066667c-3.413333 3.413333-10.24 3.413333-18.773333 1.706666zM2595.84 899.413333l-13.653333-23.893333-17.066667-30.72c8.533333-5.12 15.36-10.24 18.773333-15.36 3.413333-5.12 5.12-11.946667 5.12-20.48 0-5.12-1.706667-10.24-3.413333-15.36-1.706667-5.12-5.12-6.826667-8.533333-10.24-3.413333-1.706667-10.24-3.413333-18.773334-3.413333l-39.253333 1.706666h-20.48v8.533334c6.826667 0 10.24 1.706667 10.24 1.706666l1.706667 1.706667c0 3.413333 1.706667 10.24 1.706666 22.186667V887.466667c0 8.533333 0 13.653333-1.706666 15.36 0 0 0 1.706667-1.706667 1.706666s-5.12 1.706667-10.24 1.706667v8.533333h51.2v-8.533333c-6.826667 0-10.24-1.706667-10.24-1.706667-1.706667 0-1.706667-1.706667-1.706667-1.706666 0-1.706667 0-6.826667-1.706666-15.36v-93.866667h10.24c6.826667 0 13.653333 1.706667 17.066666 6.826667 3.413333 3.413333 5.12 10.24 5.12 17.066666 0 8.533333-1.706667 15.36-6.826666 20.48-5.12 5.12-10.24 6.826667-15.36 6.826667h-5.12c0 1.706667 0 1.706667-1.706667 3.413333l17.066667 29.013334c8.533333 17.066667 15.36 29.013333 20.48 37.546666h30.72v-6.826666c-3.413333 0-5.12 0-5.12-1.706667l-6.826667-6.826667zM2350.08 781.653333v8.533334c6.826667 0 10.24 1.706667 11.946667 1.706666 1.706667 0 1.706667 1.706667 1.706666 3.413334 0 3.413333-3.413333 15.36-10.24 34.133333l-18.773333 52.906667-22.186667-64.853334c-5.12-13.653333-6.826667-20.48-6.826666-22.186666 0-1.706667 0-1.706667 1.706666-3.413334 1.706667 0 5.12-1.706667 10.24-1.706666v-8.533334h-51.2v8.533334c5.12 0 8.533333 1.706667 10.24 1.706666 1.706667 0 1.706667 3.413333 3.413334 6.826667 3.413333 6.826667 6.826667 18.773333 13.653333 37.546667l27.306667 80.213333h11.946666c1.706667-8.533333 5.12-18.773333 10.24-32.426667l23.893334-69.973333c5.12-13.653333 8.533333-20.48 8.533333-22.186667 0-1.706667 3.413333-1.706667 8.533333-1.706666v-8.533334h-18.773333c1.706667 1.706667-5.12 1.706667-15.36 0zM2973.013333 781.653333c-10.24 20.48-17.066667 37.546667-23.893333 49.493334l-6.826667 13.653333c-6.826667-17.066667-13.653333-30.72-18.773333-40.96-5.12-8.533333-8.533333-15.36-11.946667-18.773333-1.706667-1.706667-3.413333-3.413333-6.826666-5.12-8.533333 3.413333-17.066667 5.12-25.6 6.826666v6.826667h3.413333c1.706667 0 3.413333 0 3.413333 1.706667 1.706667 1.706667 5.12 5.12 8.533334 10.24s8.533333 15.36 15.36 29.013333c6.826667 13.653333 10.24 22.186667 11.946666 25.6 0 1.706667 1.706667 6.826667 1.706667 15.36v25.6c0 1.706667-1.706667 3.413333-1.706667 5.12-1.706667 1.706667-5.12 1.706667-11.946666 1.706667v8.533333H2962.773333v-8.533333c-6.826667 0-11.946667 0-11.946666-1.706667-1.706667 0-1.706667-3.413333-1.706667-6.826667v-30.72c0-6.826667 0-11.946667 1.706667-15.36 1.706667-3.413333 8.533333-17.066667 20.48-39.253333 6.826667-13.653333 13.653333-23.893333 15.36-27.306667v-5.12h-13.653334zM2208.426667 781.653333v8.533334c6.826667 0 10.24 1.706667 11.946666 1.706666l1.706667 1.706667v102.4c0 3.413333 0 6.826667-1.706667 6.826667-1.706667 1.706667-5.12 1.706667-11.946666 1.706666v8.533334h51.2V904.533333c-6.826667 0-10.24-1.706667-10.24-1.706666-1.706667 0-1.706667-1.706667-1.706667-1.706667 0-1.706667-1.706667-6.826667-1.706667-17.066667v-51.2-37.546666c0-3.413333 1.706667-5.12 1.706667-5.12 1.706667 0 5.12-1.706667 11.946667-1.706667v-8.533333h-27.306667c-5.12 3.413333-13.653333 3.413333-23.893333 1.706666zM2476.373333 901.12c-6.826667 1.706667-15.36 1.706667-23.893333 1.706667h-15.36v-40.96-10.24h10.24c8.533333 0 15.36 0 17.066667 1.706666 1.706667 0 1.706667 1.706667 1.706666 1.706667 0 1.706667 1.706667 6.826667 1.706667 13.653333h6.826667v-20.48-20.48h-6.826667c0 6.826667 0 10.24-1.706667 11.946667 0 1.706667-1.706667 1.706667-1.706666 3.413333H2435.413333c0-11.946667 0-27.306667 1.706667-46.08h15.36c8.533333 0 15.36 0 20.48 1.706667 1.706667 0 3.413333 1.706667 3.413333 1.706667s0 5.12 1.706667 15.36h6.826667c0-11.946667 1.706667-20.48 1.706666-27.306667v-1.706667h-56.32c-6.826667 0-17.066667 0-29.013333-1.706666v8.533333c6.826667 0 10.24 1.706667 11.946667 1.706667 1.706667 1.706667 1.706667 3.413333 1.706666 6.826666v42.666667c0 30.72 0 52.906667-1.706666 61.44-1.706667 1.706667-5.12 3.413333-8.533334 5.12v5.12H2471.253333c5.12 0 8.533333 0 13.653334-1.706667 0-10.24 1.706667-20.48 1.706666-32.426666h-6.826666c0 6.826667-1.706667 13.653333-3.413334 18.773333zM2025.813333 781.653333v8.533334c6.826667 0 10.24 1.706667 11.946667 1.706666l1.706667 1.706667c0 1.706667 1.706667 6.826667 1.706666 13.653333v34.133334c0 20.48 0 32.426667-1.706666 39.253333-1.706667 5.12-5.12 10.24-8.533334 13.653333-5.12 3.413333-10.24 5.12-18.773333 5.12-6.826667 0-11.946667-1.706667-17.066667-5.12-3.413333-1.706667-6.826667-5.12-8.533333-10.24-1.706667-5.12-3.413333-11.946667-3.413333-22.186666v-35.84-30.72c0-1.706667 0-3.413333 1.706666-5.12l1.706667-1.706667c1.706667-1.706667 5.12-1.706667 10.24-1.706667v-8.533333h-51.2v8.533333c5.12 0 8.533333 1.706667 10.24 1.706667 1.706667 0 1.706667 1.706667 1.706667 1.706667 0 1.706667 1.706667 5.12 1.706666 8.533333v68.266667c0 11.946667 1.706667 18.773333 5.12 25.6 3.413333 5.12 8.533333 10.24 15.36 13.653333 6.826667 3.413333 15.36 5.12 27.306667 5.12 10.24 0 18.773333-1.706667 25.6-5.12 6.826667-3.413333 11.946667-8.533333 15.36-15.36 3.413333-6.826667 5.12-13.653333 5.12-22.186667v-22.186666c0-17.066667 0-34.133333 1.706667-47.786667 0-5.12 1.706667-8.533333 1.706666-10.24 1.706667-1.706667 5.12-1.706667 10.24-1.706667v-8.533333H2048c-8.533333 5.12-15.36 5.12-22.186667 3.413333zM2686.293333 839.68c-3.413333-1.706667-8.533333-3.413333-17.066666-5.12-10.24-1.706667-15.36-3.413333-18.773334-5.12-3.413333-1.706667-5.12-3.413333-6.826666-6.826667-1.706667-3.413333-1.706667-6.826667-1.706667-10.24 0-6.826667 1.706667-11.946667 6.826667-15.36 3.413333-3.413333 10.24-6.826667 17.066666-6.826666 5.12 0 10.24 1.706667 13.653334 3.413333 3.413333 1.706667 6.826667 5.12 6.826666 6.826667 0 1.706667 1.706667 6.826667 1.706667 17.066666h6.826667c0-8.533333 0-13.653333 1.706666-17.066666 0-3.413333 1.706667-6.826667 1.706667-10.24v-1.706667c-5.12-1.706667-10.24-3.413333-13.653333-5.12-5.12-1.706667-10.24-1.706667-15.36-1.706667-15.36 0-27.306667 3.413333-34.133334 11.946667-6.826667 8.533333-10.24 18.773333-10.24 30.72 0 6.826667 1.706667 13.653333 3.413334 18.773333 1.706667 5.12 5.12 8.533333 10.24 11.946667 5.12 1.706667 13.653333 5.12 25.6 6.826667 8.533333 1.706667 13.653333 3.413333 17.066666 6.826666 3.413333 3.413333 5.12 8.533333 5.12 15.36s-1.706667 13.653333-6.826666 17.066667c-5.12 5.12-10.24 6.826667-18.773334 6.826667-5.12 0-8.533333 0-11.946666-1.706667-3.413333-1.706667-6.826667-3.413333-10.24-6.826667-3.413333-3.413333-3.413333-5.12-5.12-6.826666v-17.066667h-6.826667v20.48c0 3.413333-1.706667 6.826667-1.706667 11.946667 5.12 3.413333 11.946667 5.12 17.066667 6.826666 5.12 1.706667 11.946667 1.706667 18.773333 1.706667 15.36 0 27.306667-5.12 35.84-13.653333s13.653333-20.48 13.653334-32.426667c0-8.533333-1.706667-13.653333-3.413334-18.773333-11.946667-5.12-15.36-10.24-20.48-11.946667zM2158.933333 781.653333v8.533334c6.826667 0 10.24 1.706667 11.946667 1.706666 1.706667 0 1.706667 1.706667 1.706667 1.706667 0 1.706667 1.706667 5.12 1.706666 11.946667V878.933333c-6.826667-10.24-17.066667-22.186667-25.6-35.84-15.36-22.186667-29.013333-40.96-40.96-59.733333h-34.133333v8.533333c6.826667 0 10.24 1.706667 11.946667 1.706667l1.706666 1.706667c0 1.706667 1.706667 8.533333 1.706667 18.773333V887.466667c0 8.533333 0 13.653333-1.706667 15.36 0 1.706667-1.706667 1.706667-1.706666 1.706666-1.706667 0-5.12 1.706667-11.946667 1.706667v8.533333h39.253333v-8.533333c-6.826667 0-10.24-1.706667-11.946666-1.706667l-1.706667-1.706666c0-1.706667-1.706667-6.826667-1.706667-18.773334V810.666667c6.826667 8.533333 13.653333 20.48 23.893334 34.133333 18.773333 27.306667 35.84 49.493333 49.493333 68.266667 3.413333 0 6.826667 1.706667 13.653333 3.413333l1.706667-1.706667v-105.813333-15.36c0-1.706667 0-1.706667 1.706667-1.706667l1.706666-1.706666c1.706667 0 5.12-1.706667 10.24-1.706667v-8.533333h-20.48c-8.533333 3.413333-13.653333 3.413333-20.48 1.706666z" p-id="880" fill="#ffffff"></path><path d="M2418.346667 472.746667v20.48l17.066666 1.706666h22.186667l3.413333-13.653333-5.12-13.653333-11.946666-11.946667-20.48-5.12-17.066667-3.413333-17.066667-6.826667V426.666667l1.706667-11.946667 10.24-10.24 13.653333-6.826667 17.066667-6.826666 10.24-8.533334-1.706667-11.946666-10.24-6.826667-10.24 1.706667-13.653333 10.24-8.533333 3.413333v-15.36l1.706666-11.946667 5.12-15.36 1.706667-17.066666-11.946667-10.24-13.653333-8.533334h-10.24l-10.24 3.413334 3.413333 13.653333 3.413334 17.066667 1.706666 17.066666 1.706667 18.773334v18.773333l-10.24 15.36-15.36 3.413333-17.066667 3.413334-13.653333 1.706666h-17.066667l-10.24 17.066667 6.826667 8.533333 5.12 6.826667 15.36-1.706667 17.066667-8.533333 15.36-8.533333 17.066666-3.413334 1.706667 11.946667-5.12 13.653333-13.653333 18.773334-20.48 17.066666-18.773334 13.653334-8.533333 8.533333 1.706667 11.946667 15.36 1.706666 13.653333-5.12 15.36-8.533333 10.24-13.653333 3.413333-11.946667 10.24-10.24 6.826667-13.653333 8.533333-3.413334 8.533334 1.706667 17.066666 8.533333zM1302.186667 657.066667l23.893333-5.12 34.133333-18.773334 34.133334-22.186666 32.426666-23.893334 29.013334-22.186666 23.893333-22.186667 17.066667-15.36 22.186666-18.773333 6.826667 22.186666 15.36 22.186667 11.946667 27.306667 10.24 29.013333 15.36 22.186667 20.48-10.24 8.533333-34.133334 5.12-63.146666V477.866667l-10.24-23.893334-15.36-15.36V460.8l-1.706667 22.186667V512l-1.706666 17.066667-10.24-10.24-11.946667-18.773334-10.24-22.186666-11.946667-35.84-6.826666-39.253334-1.706667-18.773333 15.36-10.24 22.186667-5.12v-22.186667l-18.773334 1.706667-17.066666 6.826667-6.826667-11.946667-1.706667-46.08 6.826667-46.08V204.8l-11.946667-20.48-18.773333-5.12-29.013333-1.706667 5.12 27.306667 10.24 34.133333 5.12 40.96v40.96l3.413333 39.253334-13.653333 10.24-23.893334 11.946666-27.306666 8.533334-34.133334 10.24-18.773333 10.24-39.253333 17.066666-32.426667 10.24-15.36 6.826667h-17.066667l-10.24 11.946667 18.773334 10.24 15.36 10.24 18.773333 5.12 17.066667-17.066667 23.893333-11.946667 18.773333-10.24h15.36l3.413334 29.013334-6.826667 18.773333-6.826667 15.36 10.24 15.36 17.066667 1.706667 17.066667-17.066667 15.36-23.893333 11.946666-11.946667h11.946667l5.12 29.013333-5.12 18.773334-17.066667 18.773333-23.893333 15.36-34.133333 23.893333-30.72 20.48-44.373334 15.36-34.133333 10.24-22.186667 6.826667v15.36l27.306667 6.826667 17.066667 5.12z m153.6-213.333334l-1.706667 10.24-18.773333 3.413334-15.36-1.706667-17.066667-6.826667v-15.36l18.773333-10.24 23.893334-10.24 6.826666 10.24V443.733333z m10.24-39.253333l15.36-6.826667 15.36-5.12 5.12 15.36 5.12 13.653334 5.12 18.773333 1.706666 18.773333-1.706666 15.36-15.36-1.706666-15.36-15.36-6.826667-17.066667v-18.773333l-8.533333-17.066667z" fill="#ffffff" p-id="881"></path><path d="M1367.04 554.666667v-20.48l-11.946667-17.066667-5.12-13.653333-11.946666 11.946666v13.653334l-13.653334 15.36-5.12 22.186666 18.773334 1.706667 17.066666-5.12zM1611.093333 261.12h-20.48l-3.413333 8.533333 8.533333 18.773334 1.706667 13.653333-5.12 17.066667 5.12 15.36h18.773333l15.36-11.946667 5.12-30.72-10.24-13.653333zM1409.706667 361.813333l23.893333-8.533333 18.773333-11.946667 15.36-15.36v-13.653333l-15.36-11.946667-18.773333 6.826667-15.36 10.24-18.773333 8.533333-17.066667 8.533334-18.773333 6.826666 23.893333 15.36zM1831.253333 314.026667l5.12-18.773334 15.36-15.36 5.12-17.066666-5.12-25.6-8.533333-15.36-11.946667-15.36-6.826666 13.653333v29.013333l-6.826667 35.84-1.706667 32.426667 3.413334 17.066667zM2017.28 599.04l25.6 1.706667 17.066667 5.12 15.36-1.706667 5.12-15.36v-18.773333l-8.533334-15.36-10.24-17.066667-20.48-11.946667-11.946666-1.706666 10.24 23.893333 1.706666 17.066667-5.12 18.773333zM1790.293333 634.88l22.186667-8.533333 5.12-20.48 1.706667-20.48 6.826666-23.893334 3.413334-23.893333 5.12-30.72 8.533333-18.773333 5.12-23.893334 5.12-20.48 11.946667-13.653333 3.413333-20.48 5.12-17.066667-20.48 5.12-5.12-17.066666-15.36-23.893334-13.653333-3.413333-1.706667 25.6V409.6l-8.533333 23.893333-11.946667 32.426667-1.706667 27.306667-5.12 27.306666-1.706666 23.893334-10.24 27.306666-10.24 23.893334 10.24 23.893333zM1959.253333 556.373333l-10.24 13.653334-6.826666 8.533333 6.826666 5.12 10.24-6.826667 11.946667-10.24 13.653333-13.653333 10.24-15.36 3.413334-13.653333 3.413333-10.24 13.653333-6.826667 18.773334-1.706667 11.946666-5.12 18.773334-10.24 10.24-10.24 5.12-10.24 13.653333-1.706666v-15.36l-11.946667-6.826667h-23.893333l-15.36-1.706667 1.706667 11.946667-1.706667 11.946667-10.24 10.24-11.946667 1.706666-6.826666-3.413333 1.706666-8.533333 6.826667-6.826667 5.12-6.826667 1.706667-15.36 6.826666-10.24 8.533334-11.946666v-15.36l-1.706667-15.36-6.826667-10.24-1.706666-15.36h15.36l6.826666-5.12 10.24-10.24 5.12-10.24V324.266667l-10.24-6.826667-10.24-6.826667-11.946666 1.706667-10.24-1.706667V288.426667l5.12-11.946667 10.24-10.24 10.24-10.24 10.24-6.826667 8.533333-10.24 6.826667-13.653333 3.413333-15.36v-17.066667l-8.533333-10.24-10.24-3.413333-6.826667 6.826667-5.12 15.36v18.773333l-6.826667 13.653333-11.946666 6.826667h-10.24v-10.24l-5.12-6.826667-10.24-6.826666v13.653333l3.413333 10.24v10.24l-1.706667 13.653333-8.533333 1.706667-1.706667-6.826667-1.706666-8.533333-8.533334-6.826667h-8.533333l-1.706667 15.36-1.706666 22.186667-10.24 13.653333-13.653334 8.533334-13.653333 6.826666-11.946667 8.533334-15.36 1.706666-11.946666 10.24 11.946666 6.826667 17.066667 6.826667h11.946667l5.12 11.946666 6.826666 10.24-6.826666 10.24-3.413334 23.893334-10.24 20.48-13.653333 15.36-6.826667 10.24 5.12 10.24 6.826667 10.24 10.24 1.706666 11.946667-1.706666 8.533333-6.826667 5.12-10.24 6.826667-1.706667 15.36 6.826667-3.413334 22.186667-1.706666 10.24-15.36 6.826666-11.946667 1.706667-11.946667 1.706667-1.706666 11.946666 13.653333 1.706667h10.24l6.826667 10.24v15.36l-8.533334 18.773333z m37.546667-177.493333l10.24 6.826667-1.706667 10.24-11.946666 5.12-10.24 3.413333-15.36-1.706667v-13.653333l10.24-6.826667 18.773333-3.413333z m-49.493333-37.546667l10.24-10.24 10.24-10.24h15.36l10.24 15.36-1.706667 18.773334-18.773333 1.706666-11.946667-6.826666-13.653333-8.533334z m29.013333 100.693334l-17.066667 1.706666-6.826666-6.826666 6.826666-11.946667 15.36-1.706667 10.24-5.12 10.24 1.706667-1.706666 11.946667-17.066667 10.24zM2698.24 401.066667l15.36-1.706667 10.24-11.946667 1.706667-17.066666 6.826666-6.826667 22.186667-1.706667 6.826667-13.653333 1.706666-32.426667-17.066666-15.36-8.533334-10.24-5.12 3.413334v13.653333l-3.413333 6.826667h-13.653333l-11.946667-5.12-1.706667 25.6-3.413333 22.186666-5.12 15.36-8.533333 8.533334 1.706666 10.24z" fill="#ffffff" p-id="882"></path><path d="M2892.8 518.826667l-5.12-10.24-10.24-1.706667-18.773333 1.706667-15.36 5.12h-10.24l1.706666-18.773334 1.706667-15.36 6.826667-15.36 8.533333-6.826666 15.36-5.12 15.36-6.826667 11.946667-11.946667 10.24-11.946666 15.36-10.24-6.826667-23.893334-15.36-6.826666-13.653333 5.12-11.946667 6.826666-6.826667-8.533333 1.706667-6.826667 10.24-10.24 18.773333-11.946666 10.24-15.36 18.773334-10.24 11.946666-10.24 17.066667-5.12 18.773333-8.533334 8.533334-15.36v-15.36l-11.946667-17.066666-11.946667-10.24-13.653333-1.706667-8.533333 6.826667-10.24 10.24-15.36 1.706666h-8.533334l-3.413333-6.826666 1.706667-6.826667 10.24-1.706667 10.24-10.24 5.12-17.066666-1.706667-10.24-6.826667-10.24-10.24-6.826667-11.946666 1.706667-5.12 11.946666-6.826667 17.066667-6.826667 15.36-8.533333 15.36-10.24-1.706667-5.12-6.826666-10.24-10.24-10.24-3.413334-6.826667 1.706667v6.826667l8.533334 17.066666 5.12 11.946667-10.24 8.533333-11.946667 10.24 1.706667 10.24h6.826666l13.653334-6.826666h8.533333l6.826667 10.24 6.826666 11.946666 13.653334-5.12 11.946666-3.413333 6.826667 6.826667 10.24 1.706666-3.413333 10.24-10.24 1.706667-10.24 10.24-15.36 6.826667-11.946667-10.24-6.826667-8.533334-6.826666-1.706666-6.826667-6.826667-10.24 17.066667-1.706667 6.826666-18.773333-1.706666-6.826667-6.826667-6.826666 6.826667 5.12 15.36 1.706666 15.36-17.066666 17.066666 17.066666 5.12 18.773334 1.706667-3.413334 13.653333-17.066666 10.24-56.32 20.48-44.373334 17.066667-23.893333 1.706667-15.36-1.706667h-15.36l-6.826667 10.24 8.533334 11.946667 11.946666 6.826666 15.36 8.533334 17.066667 3.413333 15.36-5.12 15.36-8.533333 23.893333-8.533334 15.36-10.24 18.773334-10.24 18.773333-10.24 18.773333-11.946666 20.48-11.946667 10.24-6.826667 23.893334 1.706667 1.706666 11.946667-17.066666 13.653333-18.773334 11.946667-15.36 5.12-17.066666 13.653333 1.706666 23.893333-1.706666 22.186667-11.946667 10.24-23.893333 6.826667-27.306667 5.12-23.893333 1.706666-10.24 6.826667 1.706666 13.653333 8.533334 6.826667 11.946666 6.826667 18.773334-6.826667 11.946666-6.826667 15.36-5.12 15.36-5.12 15.36-1.706666 1.706667 18.773333-1.706667 17.066667-10.24 8.533333-30.72-1.706667-8.533333-5.12-6.826667 3.413334 8.533334 18.773333 10.24 8.533333 15.36 5.12 15.36 8.533334 15.36 1.706666 15.36-3.413333 11.946666-15.36 1.706667-25.6-1.706667-23.893333v-25.6l5.12-10.24h39.253334l13.653333-1.706667v-8.533333z m5.12-221.866667l-17.066667 1.706667-5.12-6.826667 5.12-6.826667h15.36l15.36 1.706667 23.893334-1.706667-1.706667 13.653334-6.826667 10.24h-10.24l-18.773333-11.946667z" fill="#ffffff" p-id="883"></path><path d="M694.613333 488.106667h10.24v34.133333h-10.24zM667.306667 488.106667h10.24v34.133333h-10.24zM716.8 523.946667v-25.6l-5.12-10.24h-5.12v35.84zM800.426667 469.333333h-81.92l10.24 6.826667h64.853333zM653.653333 488.106667h10.24v34.133333h-10.24zM448.853333 481.28l-1.706666 3.413333h262.826666v-3.413333zM785.066667 486.4l3.413333-5.12H733.866667l6.826666 5.12zM680.96 488.106667h10.24v34.133333h-10.24zM373.76 486.4h44.373333l5.12-5.12h-54.613333c3.413333 5.12 3.413333 5.12 5.12 5.12zM570.026667 353.28h17.066666c3.413333-6.826667 3.413333-11.946667 5.12-23.893333-1.706667-6.826667 0-20.48-6.826666-27.306667 3.413333-5.12 5.12-1.706667 6.826666-8.533333 0-5.12-1.706667-5.12-3.413333-8.533334h-20.48c-1.706667 3.413333-1.706667 5.12-1.706667 8.533334 0 6.826667 3.413333 5.12 5.12 8.533333-5.12 6.826667-6.826667 22.186667-6.826666 27.306667 1.706667 11.946667 0 17.066667 5.12 23.893333zM570.026667 276.48h15.36v5.12h-15.36zM776.533333 715.093333H389.12l10.24 5.12h365.226667l11.946666-5.12zM249.173333 711.68h665.6l6.826667-8.533333H244.053333c0 1.706667 5.12 8.533333 5.12 8.533333zM436.906667 469.333333H358.4l6.826667 6.826667 63.146666 1.706667zM612.693333 450.56c3.413333 0 5.12-1.706667 5.12-3.413333V443.733333c0-1.706667-1.706667-3.413333-5.12-3.413333h-22.186666c-3.413333 0-5.12 1.706667-5.12 3.413333v1.706667c0 1.706667 1.706667 3.413333 5.12 3.413333h22.186666zM653.653333 450.56c3.413333 0 5.12-1.706667 5.12-3.413333V443.733333c0-1.706667-1.706667-3.413333-5.12-3.413333H631.466667c-3.413333 0-5.12 1.706667-5.12 3.413333v1.706667c0 1.706667 1.706667 3.413333 5.12 3.413333h22.186666zM696.32 459.093333c3.413333 0 5.12 0 6.826667-3.413333v-1.706667c0-1.706667-1.706667-5.12-3.413334-5.12l-22.186666-5.12c-3.413333 0-5.12 0-6.826667 3.413334v1.706666c0 1.706667 1.706667 5.12 3.413333 5.12l22.186667 5.12zM242.346667 701.44H921.6l6.826667-8.533333H237.226667c-1.706667-1.706667 5.12 8.533333 5.12 8.533333z" fill="#ffffff" p-id="884"></path><path d="M723.626667 448.853333l11.946666-10.24 5.12-6.826666 10.24-18.773334-10.24 8.533334-15.36 3.413333h-11.946666l-13.653334-3.413333-5.12-5.12-3.413333-8.533334 3.413333-13.653333c0-1.706667 1.706667-17.066667 1.706667-17.066667-1.706667 5.12-5.12 8.533333-11.946667 11.946667-5.12 3.413333-11.946667 6.826667-15.36 8.533333-5.12 1.706667-5.12 1.706667-15.36 1.706667l-15.36-5.12v-20.48l5.12-5.12v-18.773333h-15.36l-3.413333 8.533333h-35.84v-3.413333h-18.773333v3.413333h-35.84l-1.706667-8.533333h-15.36v18.773333l5.12 5.12V392.533333l-8.533333 3.413334c-3.413333 1.706667-8.533333 3.413333-13.653334 3.413333-6.826667 0-29.013333-13.653333-34.133333-22.186667 0-1.706667 0 13.653333 1.706667 17.066667l3.413333 11.946667-3.413333 10.24-1.706667 1.706666-5.12 3.413334-15.36 5.12h-11.946667l-10.24-1.706667-3.413333-1.706667-10.24-8.533333 8.533333 18.773333 3.413334 3.413334 8.533333 10.24 8.533333 5.12c1.706667 1.706667 17.066667 1.706667 15.36 1.706666-1.706667-1.706667 13.653333-8.533333 11.946667-8.533333l23.893333-8.533333h187.733334l22.186666 8.533333 11.946667 6.826667 11.946667-3.413334z" fill="#ffffff" p-id="885"></path><path d="M892.586667 494.933333l-17.066667 1.706667-15.36-5.12-15.36-15.36-22.186667-42.666667-20.48 42.666667-17.066666 15.36-15.36 5.12-17.066667-1.706667-13.653333-5.12-30.72-25.6 8.533333 29.013334 11.946667 18.773333 11.946666 13.653333 3.413334 1.706667H414.72l1.706667-1.706667 13.653333-13.653333 11.946667-18.773333 8.533333-29.013334-30.72 25.6-15.36 5.12-17.066667 1.706667-15.36-5.12-15.36-15.36-22.186666-42.666667-20.48 42.666667-17.066667 15.36-15.36 5.12-17.066667-1.706667-13.653333-5.12-30.72-25.6 8.533333 29.013334 10.24 18.773333 13.653334 11.946667 8.533333 6.826666 10.24 5.12h614.4l18.773333-11.946666 13.653334-11.946667 11.946666-18.773333 8.533334-29.013334-30.72 25.6z" fill="#ffffff" p-id="886"></path><path d="M571.733333 450.56c3.413333 0 5.12-1.706667 5.12-3.413333V443.733333c0-1.706667-1.706667-3.413333-5.12-3.413333h-22.186666c-3.413333 0-5.12 1.706667-5.12 3.413333v1.706667c0 1.706667 1.706667 3.413333 5.12 3.413333h22.186666zM720.213333 503.466667v20.48h10.24v-6.826667zM448.853333 657.066667h266.24l-1.706666-3.413334H450.56zM640 488.106667h10.24v34.133333h-10.24zM558.08 588.8h46.08v47.786667h-46.08zM428.373333 523.946667h10.24v-20.48l-10.24 13.653333zM436.906667 684.373333h290.133333l-1.706667-5.12H438.613333zM445.44 665.6h273.066667l-1.706667-3.413333H447.146667zM453.973333 645.12l-1.706666 3.413333h257.706666l-1.706666-3.413333zM442.026667 675.84h279.893333l-1.706667-5.12H443.733333z" fill="#ffffff" p-id="887"></path><path d="M880.64 556.373333h-136.533333v-3.413333h134.826666v-13.653333H587.093333v-1.706667h-13.653333v1.706667H278.186667v13.653333h138.24v3.413333h-138.24v100.693334h-15.36l-13.653334 27.306666h167.253334l17.066666-40.96h-13.653333v-5.12h334.506667v5.12h-23.893334l18.773334 39.253334H916.48l-18.773333-29.013334h-18.773334v-97.28zM409.6 636.586667V563.2h6.826667v66.56c0 3.413333 1.706667 6.826667 1.706666 6.826667H409.6z m324.266667-83.626667v3.413333h-52.906667v-1.706666-1.706667H733.866667z m-63.146667 0s0 1.706667 0 0v3.413333h-6.826667v-1.706666-1.706667h6.826667z m-83.626667 0h66.56v3.413333h-66.56v-3.413333z m-13.653333 0v3.413333h-66.56v-1.706666-1.706667h66.56z m-76.8 0s0 1.706667 0 0v3.413333h-6.826667v-1.706666-1.706667h6.826667z m-15.36 0s0 1.706667 0 0v3.413333H426.666667v-1.706666-1.706667h54.613333z m-58.026667 83.626667c1.706667 0 1.706667-3.413333 1.706667-6.826667V580.266667l15.36-17.066667h22.186667l15.36 17.066667v49.493333c0 3.413333 1.706667 6.826667 1.706666 6.826667h-56.32z m64.853334 0c1.706667 0 1.706667-3.413333 1.706666-6.826667V563.2h6.826667v66.56c0 3.413333 1.706667 6.826667 1.706667 6.826667h-10.24z m119.466666 0h-54.613333v-52.906667h54.613333v52.906667z m3.413334 0V580.266667h-59.733334v54.613333h-46.08c1.706667 0 1.706667-3.413333 1.706667-6.826667V580.266667l15.36-17.066667h116.053333l15.36 17.066667v49.493333c0 3.413333 1.706667 6.826667 1.706667 6.826667h-44.373333z m51.2 0c1.706667 0 1.706667-3.413333 1.706666-6.826667V563.2h6.826667v66.56c0 3.413333 1.706667 6.826667 1.706667 6.826667h-10.24z m17.066666 0c1.706667 0 1.706667-3.413333 1.706667-6.826667V580.266667l15.36-17.066667H716.8l15.36 17.066667v56.32h-52.906667z m73.386667 0h-10.24V563.2h10.24v73.386667zM534.186667 488.106667h10.24v34.133333h-10.24zM481.28 488.106667h10.24v34.133333h-10.24zM508.586667 488.106667h10.24v34.133333h-10.24zM520.533333 488.106667h10.24v34.133333h-10.24zM561.493333 488.106667h10.24v34.133333h-10.24zM547.84 488.106667h10.24v34.133333h-10.24zM614.4 488.106667h10.24v34.133333H614.4zM575.146667 488.106667h10.24v34.133333h-10.24zM628.053333 488.106667h10.24v34.133333h-10.24zM600.746667 488.106667h10.24v34.133333h-10.24zM587.093333 488.106667h10.24v34.133333h-10.24zM494.933333 488.106667h10.24v34.133333H494.933333zM442.026667 500.053333v23.893334h8.533333v-35.84h-3.413333zM472.746667 457.386667l20.48-5.12c3.413333 0 5.12-3.413333 3.413333-5.12v-1.706667c0-1.706667-3.413333-3.413333-5.12-1.706667l-20.48 5.12c-3.413333 0-5.12 3.413333-3.413333 5.12v1.706667c0 1.706667 1.706667 3.413333 5.12 1.706667zM453.973333 488.106667h10.24v34.133333h-10.24zM532.48 450.56c3.413333 0 5.12-1.706667 5.12-3.413333v-1.706667c0-1.706667-1.706667-3.413333-5.12-3.413333H512c-3.413333 0-5.12 1.706667-5.12 3.413333v1.706667c0 1.706667 1.706667 3.413333 5.12 3.413333h20.48zM452.266667 467.626667l-1.706667 8.533333h257.706667l-1.706667-8.533333zM467.626667 488.106667h10.24v34.133333h-10.24z" fill="#ffffff" p-id="888"></path><path d="M566.613333 856.746667l-1.706666 1.706666v1.706667H570.026667l1.706666-1.706667-1.706666-1.706666zM564.906667 861.866667H563.2v3.413333h1.706667l3.413333-1.706667v-1.706666h-1.706667z" p-id="889" fill="#ffffff"></path><path d="M581.973333 80.213333C354.986667 80.213333 168.96 266.24 168.96 494.933333c0 80.213333 23.893333 157.013333 63.146667 220.16l8.533333 13.653334c3.413333 6.826667 8.533333 11.946667 13.653333 18.773333 75.093333 97.28 194.56 160.426667 327.68 160.426667 129.706667 0 244.053333-61.44 322.56-153.6l20.48-29.013334c1.706667-3.413333 5.12-5.12 6.826667-8.533333 40.96-66.56 66.56-139.946667 66.56-223.573333-1.706667-226.986667-187.733333-413.013333-416.426667-413.013334z m267.946667 126.293334l20.48 22.186666-1.706667 1.706667-6.826666-6.826667-1.706667-1.706666h-1.706667l-37.546666 35.84s-1.706667 1.706667 0 1.706666c0 0 0 1.706667 1.706666 1.706667l6.826667 6.826667-3.413333 5.12-20.48-20.48 1.706666-1.706667 6.826667 6.826667 1.706667 1.706666s1.706667 0 1.706666-1.706666l37.546667-35.84 1.706667-1.706667s0-1.706667-1.706667-1.706667l-6.826667-6.826666 1.706667-5.12z m-52.906667-1.706667c-3.413333-6.826667-5.12-11.946667-5.12-13.653333 0-3.413333 0-6.826667 3.413334-10.24 1.706667-3.413333 5.12-5.12 10.24-5.12s8.533333 0 13.653333 3.413333l5.12 5.12c1.706667 1.706667 1.706667 3.413333 3.413333 3.413333H832.853333l-8.533333 13.653334h-1.706667c1.706667-5.12 1.706667-10.24 1.706667-11.946667 0-3.413333-1.706667-5.12-5.12-6.826667-3.413333-3.413333-6.826667-3.413333-10.24-3.413333-3.413333 1.706667-5.12 3.413333-6.826667 5.12-1.706667 1.706667-1.706667 3.413333-1.706666 6.826667 0 1.706667 1.706667 6.826667 5.12 13.653333 3.413333 5.12 5.12 10.24 5.12 13.653333 0 3.413333-1.706667 8.533333-3.413334 10.24-3.413333 3.413333-6.826667 5.12-10.24 6.826667h-1.706666c-3.413333 0-6.826667-1.706667-11.946667-5.12l-5.12-5.12c-1.706667-1.706667-1.706667-3.413333-3.413333-3.413333H769.706667l8.533333-17.066667 3.413333 1.706667c-1.706667 5.12-3.413333 10.24-1.706666 13.653333 1.706667 3.413333 3.413333 6.826667 5.12 8.533333 3.413333 1.706667 6.826667 3.413333 8.533333 3.413334 3.413333 0 6.826667-3.413333 8.533333-6.826667 1.706667-1.706667 1.706667-5.12 1.706667-6.826667-1.706667-5.12-3.413333-8.533333-6.826667-13.653333z m-44.373333-64.853333l18.773333 10.24c5.12 3.413333 8.533333 5.12 10.24 10.24 1.706667 3.413333 1.706667 8.533333-1.706666 11.946666-1.706667 5.12-5.12 6.826667-8.533334 8.533334-3.413333 1.706667-6.826667 1.706667-10.24 0l-3.413333 29.013333v1.706667s0 1.706667 1.706667 1.706666l1.706666 1.706667-1.706666 1.706667-8.533334-6.826667 3.413334-34.133333-6.826667-3.413334-11.946667 22.186667v1.706667s0 1.706667 1.706667 1.706666l1.706667 1.706667-1.706667 1.706667-15.36-8.533334 1.706667-1.706666 1.706666 1.706666h1.706667s1.706667 0 1.706667-1.706666l25.6-46.08v-1.706667s0-1.706667-1.706667-1.706667l-1.706667-1.706666h1.706667z m-51.2-22.186667l34.133333 13.653333v13.653334H733.866667c0-3.413333-1.706667-6.826667-3.413334-10.24l-5.12-5.12-10.24-3.413334h-1.706666s-1.706667 0-1.706667 1.706667l-8.533333 20.48 10.24 3.413333c1.706667 0 3.413333 1.706667 5.12 0 1.706667 0 1.706667-1.706667 3.413333-5.12l1.706667-1.706666 3.413333 1.706666-10.24 20.48-3.413333-1.706666v-1.706667c1.706667-1.706667 1.706667-5.12 0-6.826667 0-1.706667-1.706667-3.413333-3.413334-3.413333l-10.24-3.413333-10.24 25.6v1.706666l1.706667 1.706667 8.533333 3.413333c3.413333 1.706667 6.826667 1.706667 10.24 0 3.413333-1.706667 6.826667-3.413333 8.533334-6.826666l1.706666 1.706666-8.533333 11.946667-35.84-13.653333 1.706667-3.413334 1.706666 1.706667h1.706667s1.706667 0 1.706667-1.706667l18.773333-49.493333v-1.706667L699.733333 119.466667h-1.706666l3.413333-1.706667z m-54.613333-13.653333l15.36 3.413333v3.413333h-3.413334v46.08L677.546667 119.466667c0-1.706667 1.706667-3.413333 0-3.413334l-1.706667-1.706666h-1.706667v-3.413334l13.653334 3.413334v3.413333H682.666667s0 1.706667-1.706667 3.413333l-27.306667 51.2h-3.413333V116.053333v-3.413333c0-1.706667-1.706667-1.706667-1.706667-1.706667h-1.706666v-6.826666z m-52.906667 56.32h10.24v-1.706667l3.413333-51.2v-1.706667H597.333333V102.4h30.72v3.413333h-10.24l-1.706666 1.706667-3.413334 51.2v1.706667h10.24v3.413333l-29.013333-1.706667v-1.706666zM546.133333 102.4l27.306667 46.08-3.413333-42.666667v-1.706666H564.906667v-3.413334h15.36v3.413334H575.146667v1.706666l3.413333 58.026667h-1.706667L546.133333 110.933333v49.493334c0 1.706667 0 1.706667 1.706667 1.706666H552.96v3.413334l-15.36 1.706666v-3.413333H542.72v-1.706667l-3.413333-51.2c0-1.706667 0-1.706667-1.706667-1.706666h-6.826667v-3.413334L546.133333 102.4z m-51.2 10.24v3.413333h-1.706666c-1.706667 0-1.706667 0-1.706667 1.706667V119.466667l10.24 40.96c1.706667 5.12 3.413333 6.826667 5.12 8.533333 1.706667 1.706667 5.12 1.706667 8.533333 0 3.413333 0 6.826667-3.413333 8.533334-5.12 1.706667-3.413333 1.706667-6.826667 1.706666-10.24l-10.24-40.96c0-1.706667 0-1.706667-1.706666-1.706667h-3.413334v-3.413333l13.653334-3.413333v3.413333h-1.706667c-1.706667 0-1.706667 0-1.706667 1.706667v1.706666l6.826667 42.666667c1.706667 5.12 0 8.533333-1.706667 11.946667-3.413333 3.413333-6.826667 5.12-10.24 6.826666h-5.12c-3.413333 0-5.12 0-6.826666-1.706666-5.12 0-6.826667-3.413333-8.533334-10.24L484.693333 119.466667c0-1.706667 0-1.706667-1.706666-1.706667h-3.413334v-3.413333l15.36-1.706667z m-107.52 42.666667l44.373334 30.72-20.48-37.546667-1.706667-1.706667h-1.706667l-3.413333 1.706667-1.706667-1.706667 13.653334-6.826666 1.706666 1.706666-3.413333 1.706667-1.706667 1.706667v1.706666l27.306667 51.2-1.706667 1.706667-51.2-34.133333 23.893334 42.666666 1.706666 1.706667h1.706667l3.413333-1.706667 1.706667 1.706667-13.653333 6.826667-1.706667-1.706667 3.413333-1.706667c1.706667 0 1.706667-1.706667 1.706667-1.706666v-1.706667l-25.6-46.08-1.706667-1.706667h-3.413333l-1.706667 1.706667-1.706666-1.706667 11.946666-6.826666z m-37.546666 22.186666l46.08 37.546667c1.706667 0 1.706667 1.706667 3.413333 1.706667h1.706667l1.706666-1.706667 1.706667 1.706667-11.946667 10.24-1.706666-1.706667 1.706666-1.706667c1.706667 0 1.706667-1.706667 1.706667-1.706666s-1.706667-1.706667-1.706667-3.413334l-11.946666-10.24-11.946667 10.24 5.12 13.653334c1.706667 1.706667 1.706667 3.413333 3.413333 3.413333h3.413334l1.706666-1.706667 1.706667 1.706667-11.946667 8.533333-1.706666-1.706666 1.706666-1.706667 1.706667-1.706667v-3.413333l-23.893333-52.906667v-5.12z m-56.32 56.32l11.946666-11.946666 1.706667 1.706666-1.706667 1.706667-1.706666 1.706667v1.706666l17.066666 15.36 15.36-15.36-17.066666-15.36-1.706667-1.706666s-1.706667 0-1.706667 1.706666l-1.706666 1.706667-1.706667-1.706667 10.24-11.946666 1.706667 1.706666v1.706667l-1.706667 1.706667v1.706666l37.546667 35.84s1.706667 1.706667 1.706666 0c0 0 1.706667 0 1.706667-1.706666l1.706667-1.706667 1.706666 1.706667-10.24 11.946666-1.706666 1.706667 1.706666-1.706667 1.706667-1.706666s0-1.706667-1.706667-1.706667l-18.773333-18.773333-15.36 15.36 18.773333 18.773333s1.706667 1.706667 1.706667 0c0 0 1.706667 0 1.706667-1.706667l1.706666-1.706666 1.706667 1.706666-11.946667 11.946667-1.706666-1.706667 1.706666-1.706666 1.706667-1.706667s0-1.706667-1.706667-1.706667l-37.546666-35.84-1.706667-1.706666s-1.706667 0-1.706667 1.706666l-1.706666 1.706667v-1.706667z m-25.6 30.72l1.706666 1.706667-1.706666 1.706667v1.706666s0 1.706667 1.706666 1.706667l34.133334 25.6c3.413333 3.413333 6.826667 3.413333 10.24 3.413333 1.706667 0 5.12-1.706667 6.826666-5.12 1.706667-3.413333 3.413333-6.826667 1.706667-10.24 0-3.413333-1.706667-6.826667-5.12-8.533333l-34.133333-25.6h-1.706667s-1.706667 0-1.706667 1.706667l-1.706666 3.413333-1.706667-1.706667 8.533333-11.946666 1.706667 1.706666-1.706667 1.706667v1.706667s0 1.706667 1.706667 1.706666l34.133333 25.6c3.413333 3.413333 6.826667 6.826667 6.826667 10.24 0 5.12 0 8.533333-3.413333 11.946667-3.413333 3.413333-5.12 6.826667-10.24 6.826667h-3.413334c-3.413333 0-6.826667-1.706667-8.533333-3.413334l-34.133333-25.6h-1.706667s-1.706667 0-1.706667 1.706667l-1.706666 1.706667-1.706667-1.706667 6.826667-11.946667z m-30.72 51.2l1.706666 1.706667v3.413333s0 1.706667 1.706667 1.706667l37.546667 13.653333-23.893334-20.48-6.826666-3.413333h-1.706667s-1.706667 0-1.706667 1.706667v1.706666l-5.12-3.413333 6.826667-11.946667 1.706667 1.706667v3.413333s0 1.706667 1.706666 1.706667l35.84 13.653333-29.013333-22.186666c-1.706667 0-1.706667-1.706667-1.706667 0 0 0-1.706667 0-1.706666 1.706666v1.706667l-1.706667-1.706667 5.12-10.24 1.706667 1.706667v3.413333s0 1.706667 1.706666 1.706667l46.08 35.84-1.706666 1.706667-35.84-13.653334 30.72 25.6-1.706667 1.706667-54.613333-18.773333h-1.706667s-1.706667 0-1.706667 1.706666v1.706667l-1.706666-1.706667v-15.36z m232.106666 517.12l1.706667 1.706667-1.706667 1.706667-3.413333-1.706667h-3.413333l-1.706667 1.706667-1.706667 5.12-1.706666 5.12v8.533333l1.706666-1.706667 1.706667-3.413333 1.706667-1.706667 1.706666-3.413333v3.413333l-1.706666 3.413334-1.706667 1.706666v6.826667l-6.826667 6.826667-1.706666 3.413333h-3.413334v-3.413333l1.706667-5.12 1.706667-5.12V853.333333l1.706666-3.413333H416.426667l-3.413334-1.706667H409.6l-3.413333-3.413333 1.706666-1.706667 3.413334 1.706667 5.12 1.706667 6.826666 1.706666h17.066667l3.413333-1.706666 1.706667-1.706667 1.706667-3.413333-1.706667-1.706667h-3.413333l-3.413334 1.706667h-3.413333l-1.706667-1.706667V836.266667l1.706667-1.706667 1.706667-1.706667 1.706666-3.413333-1.706666-1.706667H426.666667l-1.706667-1.706666-1.706667-3.413334h1.706667l1.706667 1.706667h1.706666l5.12 1.706667 6.826667 1.706666h3.413333l5.12 1.706667 3.413334 1.706667H457.386667l3.413333-5.12 3.413333-5.12 3.413334-5.12 1.706666-5.12 1.706667-3.413334 3.413333 3.413334 1.706667 1.706666v3.413334l-1.706667 3.413333-5.12 5.12-3.413333 5.12v1.706667l3.413333 1.706666z m-39.253333 6.826667l-1.706667 1.706667H426.666667l-1.706667-1.706667-1.706667-1.706667 3.413334-1.706666h3.413333l1.706667-1.706667h3.413333v1.706667l-5.12 3.413333z m15.36-23.893333h17.066667v3.413333l-1.706667 3.413333h-6.826667l-3.413333-1.706666-3.413333-1.706667-1.706667-3.413333z m39.253333 17.066666l-3.413333 3.413334H477.866667l-1.706667-1.706667v-1.706667l1.706667-1.706666 1.706666-1.706667v-3.413333l1.706667-1.706667 3.413333 1.706667v6.826666z m66.56 25.6v3.413334l-1.706666 1.706666-1.706667 3.413334-1.706667 1.706666-1.706666 1.706667-1.706667 3.413333v3.413334l-1.706667 3.413333v3.413333l-1.706666 3.413334h-3.413334l-1.706666-1.706667-1.706667-3.413333 1.706667-3.413334 1.706666-3.413333v-3.413333l1.706667-3.413334v-3.413333l1.706667-3.413333 1.706666-3.413334v-8.533333h1.706667l1.706667 3.413333v1.706667h3.413333l3.413333 3.413333z m0-17.066666l-1.706666 1.706666-1.706667 3.413334-1.706667 1.706666v-6.826666l1.706667-5.12v-3.413334l1.706667-1.706666 1.706666 1.706666v8.533334z m25.6 46.08l-1.706666 1.706666h-1.706667l-1.706667-1.706666h-3.413333l3.413333-1.706667 1.706667-3.413333v-1.706667l-1.706667-3.413333h1.706667l1.706667 1.706666 1.706666 1.706667 1.706667 1.706667-1.706667 5.12z m6.826667-51.2v1.706666l-1.706667 1.706667-1.706666 1.706667h-1.706667l-1.706667 1.706666-1.706666 1.706667-1.706667 1.706667v3.413333h3.413333l1.706667 1.706667 1.706667 1.706666v1.706667-1.706667l-1.706667 1.706667h-3.413333v6.826667l-1.706667 1.706666-1.706667 1.706667v6.826667h3.413334l1.706666-1.706667v-3.413333H581.973333l1.706667 1.706666v1.706667H580.266667v1.706667l-1.706667 1.706666-3.413333 1.706667h-6.826667v3.413333l-1.706667 1.706667-3.413333 1.706667-1.706667 1.706666h-3.413333l1.706667-1.706666 1.706666-1.706667 1.706667-1.706667v-3.413333h-3.413333v-1.706667H564.906667V870.4l-1.706667-3.413333h-1.706667l-1.706666 1.706666-1.706667 1.706667h-3.413333v-3.413333l1.706666-1.706667 1.706667-1.706667 1.706667-3.413333 1.706666-3.413333 1.706667-1.706667v-3.413333h-1.706667l-1.706666-1.706667-1.706667-1.706667 1.706667-1.706666h1.706666l1.706667-1.706667h1.706667l1.706666-1.706667 1.706667-1.706666V836.266667h1.706667l1.706666 1.706666v3.413334h1.706667v-6.826667l1.706667 1.706667v3.413333h3.413333l1.706667-3.413333v-1.706667l1.706666-1.706667 1.706667-1.706666h1.706667l1.706666 1.706666-3.413333 3.413334z m83.626667 34.133333l-5.12 1.706667h-1.706667v-3.413334l-1.706667-1.706666H653.653333V872.106667l-1.706666 1.706666-3.413334 1.706667-1.706666 1.706667h-1.706667v-1.706667l1.706667-1.706667 1.706666-1.706666 3.413334-3.413334 1.706666-3.413333v-3.413333h-1.706666l-3.413334 1.706666-1.706666 1.706667h-1.706667l-1.706667-1.706667-1.706666-1.706666 1.706666-3.413334h3.413334l1.706666-1.706666 1.706667-1.706667 1.706667-1.706667v-6.826666l-1.706667-1.706667v-1.706667h3.413333l1.706667 1.706667 1.706667 1.706667v8.533333h1.706666l1.706667-1.706667h1.706667l1.706666 1.706667 1.706667 1.706667-1.706667 1.706666-3.413333 1.706667-1.706667 1.706667-1.706666 1.706666v3.413334H667.306667l1.706666 1.706666 1.706667 1.706667h-3.413333z m49.493333-35.84v-3.413333l-1.706667-3.413334-1.706666-3.413333h3.413333v-6.826667l1.706667 1.706667h3.413333l1.706667 5.12v1.706667l-3.413334 1.706666v1.706667l1.706667 1.706667v1.706666l-1.706667 3.413334-3.413333-1.706667z m34.133333 6.826667l1.706667 3.413333 1.706667 3.413333 1.706666 3.413334v3.413333l-1.706666 1.706667-1.706667 1.706666h-6.826667l-3.413333-1.706666v-1.706667h1.706667l3.413333-1.706667v-1.706666l-1.706667-1.706667-1.706666-1.706667-1.706667 1.706667-1.706667 1.706667-1.706666 1.706666h1.706666l-1.706666 1.706667h-3.413334L733.866667 853.333333v-1.706666l3.413333-1.706667 3.413333-3.413333 1.706667-3.413334v-1.706666l-1.706667-3.413334V836.266667l1.706667-3.413334 1.706667-1.706666 1.706666-3.413334 1.706667-3.413333-1.706667-1.706667-3.413333 1.706667v1.706667l-1.706667 3.413333-1.706666 3.413333-3.413334 3.413334-1.706666 3.413333-1.706667 1.706667-1.706667 3.413333-1.706666 1.706667-1.706667 1.706666-1.706667 1.706667H720.213333l-1.706666-1.706667v-1.706666l1.706666-1.706667 1.706667-1.706667 3.413333-1.706666 5.12-5.12 5.12-6.826667 1.706667-3.413333v-1.706667l-3.413333 1.706667h-3.413334v-3.413334l-1.706666-1.706666-1.706667-1.706667v-1.706667h1.706667l3.413333-1.706666V810.666667h6.826667l1.706666-1.706667v-1.706667l1.706667-1.706666v-1.706667h-3.413333l-1.706667 1.706667-1.706667 1.706666-1.706666 3.413334h-3.413334l-1.706666 1.706666h-1.706667l-1.706667-1.706666 1.706667-1.706667v-1.706667l-1.706667-1.706666-1.706666-1.706667V802.133333h6.826666v-10.24l1.706667-1.706666h3.413333l1.706667 1.706666V797.013333l-1.706667 1.706667v1.706667h1.706667l1.706667-1.706667 1.706666-1.706667v-3.413333h3.413334l3.413333 1.706667 1.706667 1.706666v3.413334l-1.706667 3.413333-1.706667 1.706667v1.706666l-1.706666 3.413334v3.413333l-1.706667 3.413333v3.413334h1.706667l1.706666-1.706667 1.706667-1.706667h1.706667l3.413333 1.706667-1.706667 1.706667v3.413333l-1.706666 1.706667-1.706667 1.706666V832.853333l1.706667 1.706667 1.706666 1.706667 1.706667-1.706667-1.706667 1.706667 1.706667-1.706667h1.706667l1.706666 1.706667 1.706667 1.706666-1.706667 1.706667-1.706666 1.706667H750.933333z m196.266667-399.36c0 1.706667-3.413333 27.306667-5.12 40.96-10.24 44.373333-39.253333 54.613333-52.906667 59.733333v104.106667h13.653334l23.893333 37.546666h11.946667L921.6 716.8h-102.4s-11.946667 11.946667-23.893333 20.48c-10.24 6.826667-20.48 15.36-22.186667 15.36-54.613333 40.96-121.173333 64.853333-194.56 64.853333-69.973333 0-136.533333-22.186667-189.44-61.44-1.706667 0-10.24-8.533333-18.773333-15.36-11.946667-10.24-22.186667-23.893333-22.186667-23.893333h3.413333-107.52l-18.773333-34.133333h13.653333c5.12-10.24 17.066667-30.72 17.066667-32.426667 0 0 11.946667 0 11.946667-1.706667v-104.106666c-8.533333-5.12-17.066667-6.826667-27.306667-17.066667-13.653333-15.36-18.773333-22.186667-25.6-47.786667-5.12-20.48-8.533333-39.253333-6.826667-39.253333 0 0 6.826667 8.533333 11.946667 11.946667 10.24 8.533333 25.6 20.48 32.426667 23.893333 13.653333 8.533333 18.773333 8.533333 18.773333 8.533333V477.866667c8.533333-163.84 145.066667-295.253333 310.613333-295.253334 168.96 0 305.493333 134.826667 310.613334 302.08 0 1.706667 0 0 0 0 1.706667-1.706667 13.653333-8.533333 17.066666-10.24 3.413333-1.706667 17.066667-13.653333 18.773334-15.36 3.413333 0 20.48-17.066667 18.773333-17.066666zM914.773333 290.133333l1.706667-1.706666 8.533333 15.36H921.6v-1.706667c0-1.706667-1.706667-1.706667-1.706667-1.706667s-1.706667 0-1.706666 1.706667l-18.773334 20.48 29.013334-3.413333c1.706667 0 1.706667-1.706667 1.706666-1.706667V312.32l1.706667-1.706667 6.826667 13.653334-1.706667 1.706666V324.266667c0-1.706667-1.706667-1.706667-1.706667-1.706667h-5.12l-30.72 3.413333-18.773333 10.24-1.706667 1.706667v1.706667l1.706667 3.413333-1.706667 1.706667-8.533333-17.066667 1.706667-1.706667 1.706666 3.413334c0 1.706667 1.706667 1.706667 1.706667 1.706666h1.706667l17.066666-8.533333 22.186667-25.6c0-1.706667 1.706667-1.706667 1.706667-3.413333-3.413333-1.706667-3.413333-1.706667-3.413334-3.413334z m-29.013333-44.373333l20.48 29.013333-10.24 10.24-1.706667-1.706666c3.413333-5.12 5.12-6.826667 5.12-8.533334 0-1.706667 0-3.413333-1.706666-6.826666l-1.706667-3.413334-3.413333 1.706667-40.96 29.013333-1.706667 1.706667v1.706667l1.706667 3.413333-1.706667 1.706667-11.946667-15.36 1.706667-1.706667 1.706667 3.413333c0 1.706667 1.706667 1.706667 1.706666 1.706667h1.706667l40.96-30.72 1.706667-1.706667-1.706667-1.706666c-1.706667-3.413333-3.413333-3.413333-5.12-5.12-1.706667 0-5.12 0-10.24 1.706666l-1.706667-1.706666 17.066667-6.826667z" fill="#ffffff" p-id="890"></path><path d="M447.146667 831.146667H443.733333l-1.706666 1.706666 1.706666 1.706667 1.706667 1.706667 1.706667 1.706666 1.706666-1.706666 1.706667-1.706667v-1.706667zM566.613333 853.333333h1.706667l1.706667-1.706666-1.706667-3.413334h-1.706667l-1.706666 1.706667H563.2l1.706667 1.706667zM453.973333 832.853333v1.706667l-1.706666 3.413333-1.706667 1.706667 1.706667 3.413333 1.706666 1.706667v-1.706667l1.706667-1.706666 1.706667-3.413334V832.853333h-1.706667z" p-id="891" fill="#ffffff"></path></svg>