<?xml version="1.0" standalone="no"?><!DOCTYPE svg PUBLIC "-//W3C//DTD SVG 1.1//EN" "http://www.w3.org/Graphics/SVG/1.1/DTD/svg11.dtd"><svg t="1558768907809" class="icon" style="" viewBox="0 0 1024 1024" version="1.1" xmlns="http://www.w3.org/2000/svg" p-id="1926" xmlns:xlink="http://www.w3.org/1999/xlink" width="200" height="200"><defs><style type="text/css"></style></defs><path d="M896.731429 512c0 131.657143-68.754286 256-179.931429 327.68-112.64 71.68-257.462857 80.457143-378.88 21.942857C222.354286 804.571429 138.971429 689.005714 122.88 560.274286c-16.091429-131.657143 36.571429-264.777143 138.971429-349.622857 102.4-84.845714 245.76-111.177143 373.028571-67.291429 122.88 42.422857 219.428571 146.285714 251.611429 272.091429 7.314286 32.182857 10.24 64.365714 10.24 96.548571zM371.565714 567.588571h43.885715-43.885715zM105.325714 514.925714V512v2.925714zM912.822857 514.925714c0-1.462857 0-1.462857 0 0 0-1.462857 0-1.462857 0 0z" fill="#FFFFFF" p-id="1927"></path><path d="M646.582857 892.342857c155.062857-55.588571 266.24-204.8 266.24-377.417143 0 172.617143-111.177143 320.365714-266.24 377.417143zM501.76 820.662857c0 1.462857-1.462857 1.462857-1.462857 2.925714 1.462857 0 1.462857-1.462857 1.462857-2.925714zM529.554286 592.457143h-40.96 40.96zM106.788571 545.645714c0-5.851429-1.462857-11.702857-1.462857-16.091428 0 5.851429 0 11.702857 1.462857 16.091428zM106.788571 545.645714c14.628571 171.154286 133.12 310.125714 294.034286 354.011429-159.451429-43.885714-279.405714-181.394286-294.034286-354.011429zM397.897143 807.497143c1.462857 0 2.925714-1.462857 2.925714-2.925714-2.925714-2.925714-7.314286-4.388571-11.702857-4.388572 0 7.314286 2.925714 8.777143 8.777143 7.314286 1.462857 0-5.851429 1.462857 0 0zM416.914286 813.348571c-1.462857 2.925714-1.462857 4.388571-2.925715 4.388572 4.388571 0 2.925714 1.462857 8.777143-4.388572-1.462857-1.462857-1.462857-2.925714-2.925714-4.388571-1.462857 2.925714-2.925714 4.388571-2.925714 4.388571zM500.297143 858.697143c-1.462857 2.925714-1.462857 5.851429-2.925714 10.24h5.851428c2.925714-2.925714 2.925714-10.24-2.925714-10.24 0 2.925714 2.925714 0 0 0zM479.817143 814.811429c-1.462857 4.388571-2.925714 8.777143-2.925714 11.702857h1.462857c4.388571-2.925714 5.851429-8.777143 1.462857-11.702857 0 4.388571 4.388571 2.925714 0 0zM370.102857 826.514286c1.462857-1.462857 1.462857-4.388571 2.925714-5.851429 0 0-1.462857 0-1.462857-1.462857 0 0-10.24 5.851429-5.851428 5.851429 2.925714 1.462857 4.388571 1.462857 4.388571 1.462857z" fill="#FFFFFF" p-id="1928"></path><path d="M778.24 652.434286V599.771429v-26.331429c0-7.314286-4.388571-5.851429-11.702857-5.851429h-111.177143s-1.462857 0-1.462857-1.462857l-1.462857-1.462857c21.942857 0 45.348571-1.462857 68.754285-1.462857H760.685714c10.24 0 13.165714 2.925714 13.165715-8.777143v-1.462857c-4.388571-4.388571-14.628571-2.925714-20.48-2.925714h-106.788572c-46.811429 0-93.622857 1.462857-140.434286-1.462857-76.068571 0-150.674286 1.462857-226.742857 1.462857h-29.257143c-2.925714 0-14.628571-1.462857-17.554285 0-1.462857 1.462857-1.462857 10.24 1.462857 10.24 7.314286 1.462857 17.554286 0 24.868571 0h57.051429c10.24 0 32.182857-4.388571 39.497143 2.925714-1.462857 0-1.462857 1.462857-2.925715 1.462857h-64.365714c-8.777143 0-59.977143-4.388571-59.977143 4.388572v73.142857c0 8.777143 1.462857 11.702857-7.314285 11.702857-11.702857 0-13.165714 10.24-17.554286 19.017143-1.462857 1.462857-1.462857 2.925714-1.462857 2.925714 2.925714 2.925714 27.794286 0 32.182857 0h78.994286c8.777143 0 35.108571 4.388571 39.497142-4.388571 4.388571-10.24 8.777143-19.017143 11.702858-29.257143 0-1.462857 0-1.462857 1.462857-2.925715-4.388571 0-8.777143 1.462857-11.702857-1.462857 0-1.462857 0-2.925714 1.462857-4.388571h298.422857c4.388571 0 5.851429 5.851429 0 5.851428h-17.554286c4.388571 10.24 10.24 19.017143 13.165714 29.257143 4.388571 10.24 17.554286 7.314286 27.794286 7.314286H804.571429v-1.462857c-2.925714-4.388571-7.314286-10.24-8.777143-13.165714-4.388571-8.777143-10.24-11.702857-17.554286-10.24 1.462857 5.851429 0 5.851429 0 1.462857z m-424.228571-11.702857s-4.388571-59.977143 0-64.365715c8.777143-8.777143 7.314286 23.405714 7.314285 24.868572v40.96c-1.462857-1.462857-4.388571-1.462857-7.314285-1.462857z m248.685714-76.068572H629.028571c5.851429 0 14.628571-1.462857 19.017143 1.462857 0 5.851429-20.48 2.925714-24.868571 2.925715-2.925714 0-24.868571 2.925714-24.868572-2.925715 0 0 2.925714-1.462857 4.388572-1.462857z m-14.628572-1.462857l2.925715 2.925714c0 2.925714-2.925714 2.925714-4.388572 1.462857-1.462857 0-1.462857-1.462857-2.925714-1.462857 1.462857-1.462857 2.925714-1.462857 4.388571-2.925714 0 1.462857-1.462857 1.462857 0 0z m-70.217142 1.462857h54.125714c4.388571 0 5.851429 4.388571 1.462857 4.388572-17.554286-2.925714-38.034286 0-55.588571 0h-1.462858c-1.462857 0-1.462857-1.462857-2.925714-2.925715 1.462857 0 2.925714-1.462857 4.388572-1.462857z m-74.605715 0c7.314286 0 57.051429-2.925714 57.051429 2.925714l-1.462857 1.462858h-57.051429c-1.462857 0-1.462857-1.462857-2.925714-2.925715 2.925714 0 4.388571-1.462857 4.388571-1.462857z m-13.165714 0c1.462857 0 2.925714 1.462857 2.925714 1.462857l-4.388571 4.388572-4.388572-4.388572c2.925714 0 4.388571-1.462857 5.851429-1.462857z m-58.514286 0h26.331429c2.925714 0 20.48-1.462857 19.017143 2.925714 0 1.462857-2.925714 1.462857-2.925715 1.462858h-26.331428c-2.925714 0-23.405714 1.462857-20.48-2.925715 1.462857 0 2.925714-1.462857 4.388571-1.462857z m-2.925714 74.605714c0-16.091429-4.388571-40.96 2.925714-55.588571 2.925714-4.388571 7.314286-7.314286 10.24-11.702857 10.24-10.24 35.108571 1.462857 38.034286 14.628571 4.388571 14.628571 0 35.108571 0 49.737143-17.554286 2.925714-33.645714 2.925714-51.2 2.925714 0-16.091429 17.554286 0 0 0z m64.365714 1.462858h-5.851428v-36.571429c0-5.851429-4.388571-32.182857 5.851428-29.257143 5.851429 1.462857-1.462857 55.588571 2.925715 64.365714-1.462857 0-1.462857 1.462857-2.925715 1.462858z m96.548572 0h-20.48c-4.388571 0-20.48 2.925714-24.868572-1.462858-2.925714-2.925714-2.925714-42.422857 0-45.348571 2.925714-2.925714 14.628571-1.462857 19.017143-1.462857h26.331429c7.314286 0 4.388571 38.034286 4.388571 45.348571 0 1.462857-1.462857 2.925714-4.388571 2.925715z m46.811428-36.571429v36.571429h-21.942857c-10.24 0-19.017143 2.925714-19.017143-8.777143v-30.72c0-13.165714-2.925714-10.24-14.628571-10.24h-32.182857c-7.314286 0-4.388571 24.868571-4.388572 29.257143 0 5.851429 2.925714 19.017143-4.388571 19.017142h-36.571429c0-8.777143 1.462857-17.554286 1.462857-27.794285 0-7.314286-2.925714-20.48 2.925715-26.331429 2.925714-4.388571 7.314286-8.777143 11.702857-10.24 5.851429-5.851429 16.091429-2.925714 23.405714-2.925714h58.514286c7.314286 0 23.405714-2.925714 29.257143 2.925714 4.388571 2.925714 7.314286 7.314286 10.24 10.24 2.925714 2.925714 2.925714 4.388571 2.925714 7.314286-7.314286 4.388571-7.314286 8.777143-7.314286 11.702857z m7.314286 36.571429c1.462857-11.702857 0-24.868571 0-36.571429 0-5.851429-4.388571-30.72 4.388571-30.72 10.24 0 1.462857 58.514286 5.851429 67.291429h-10.24c1.462857-20.48 2.925714 0 0 0z m58.514286 0h-43.885715v-23.405715c0-7.314286-2.925714-23.405714 2.925715-29.257143 4.388571-5.851429 10.24-11.702857 16.091428-14.628571 5.851429 0 11.702857-1.462857 14.628572 1.462857 14.628571 7.314286 14.628571 19.017143 14.628571 33.645714 1.462857 5.851429 5.851429 32.182857-4.388571 32.182858z m23.405714-33.645715c0 5.851429 4.388571 29.257143 0 33.645715-2.925714 2.925714-11.702857 1.462857-10.24-2.925715v-43.885714c0-4.388571-1.462857-16.091429 1.462857-19.017143 2.925714-2.925714 8.777143-1.462857 8.777143 2.925714v29.257143z" fill="#020864" p-id="1929"></path><path d="M773.851429 513.462857c-14.628571-2.925714-27.794286-14.628571-33.645715-27.794286-4.388571-8.777143-8.777143-16.091429-11.702857-24.868571 0-1.462857-1.462857-1.462857-1.462857-2.925714-5.851429 16.091429-17.554286 38.034286-32.182857 48.274285 0 0 0 1.462857-1.462857 1.462858-17.554286 8.777143-35.108571 8.777143-51.2-4.388572-1.462857-1.462857-4.388571-2.925714-5.851429-5.851428-4.388571-2.925714-8.777143-7.314286-11.702857-11.702858 2.925714 21.942857 14.628571 38.034286 30.72 54.125715H359.862857c7.314286-7.314286 13.165714-16.091429 19.017143-24.868572 7.314286-8.777143 7.314286-19.017143 11.702857-29.257143-1.462857 0-1.462857 0-2.925714 1.462858-5.851429 4.388571-10.24 8.777143-14.628572 11.702857-2.925714 2.925714-7.314286 5.851429-11.702857 7.314285-13.165714 8.777143-29.257143 5.851429-42.422857-1.462857-8.777143-7.314286-14.628571-14.628571-20.48-26.331428-2.925714-8.777143-8.777143-14.628571-11.702857-23.405715-1.462857 1.462857-1.462857 2.925714-1.462857 2.925715-2.925714 5.851429-7.314286 11.702857-8.777143 17.554285-5.851429 10.24-11.702857 20.48-21.942857 29.257143l-2.925714 2.925715c-7.314286 2.925714-11.702857 5.851429-20.48 4.388571-10.24 0-19.017143-2.925714-26.331429-8.777143-5.851429-5.851429-11.702857-10.24-16.091429-13.165714-1.462857 0-1.462857-1.462857-2.925714-1.462857 0 2.925714 0 4.388571 1.462857 7.314285 4.388571 16.091429 11.702857 30.72 23.405715 42.422858 19.017143 16.091429 40.96 11.702857 64.365714 11.702857h453.485714c20.48 0 49.737143 5.851429 68.754286-7.314286 14.628571-10.24 24.868571-21.942857 30.72-38.034286 1.462857-5.851429 2.925714-10.24 4.388571-14.628571h-1.462857c-1.462857 1.462857-4.388571 2.925714-5.851428 4.388571-10.24 7.314286-17.554286 17.554286-30.72 20.48-7.314286-1.462857-13.165714 0-20.48-1.462857z" fill="#020864" p-id="1930"></path><path d="M639.268571 468.114286c8.777143-5.851429 14.628571-11.702857 19.017143-21.942857 0-1.462857 1.462857-2.925714 2.925715-5.851429-8.777143 7.314286-17.554286 8.777143-29.257143 7.314286-5.851429 0-10.24-1.462857-14.628572-2.925715-7.314286-1.462857-11.702857-8.777143-10.24-14.628571 0-2.925714 1.462857-5.851429 2.925715-8.777143 0-4.388571 1.462857-8.777143 1.462857-11.702857-10.24 7.314286-20.48 20.48-33.645715 16.091429-5.851429-1.462857-10.24-2.925714-14.628571-4.388572-1.462857 0-1.462857-2.925714-1.462857-2.925714 0-1.462857-1.462857-16.091429 1.462857-16.091429 10.24-5.851429 5.851429-21.942857-7.314286-19.017143-1.462857 0-2.925714 1.462857-2.925714 4.388572 0 5.851429-5.851429 4.388571-10.24 4.388571-5.851429 0-20.48 2.925714-24.868571-1.462857-5.851429 0-16.091429-5.851429-20.48 1.462857-4.388571 0-30.72 2.925714-30.72-2.925714-1.462857-5.851429-8.777143-8.777143-14.628572-4.388571-2.925714 2.925714-1.462857 16.091429 1.462857 17.554285l2.925715 2.925715c0 5.851429 1.462857 10.24-1.462858 14.628571-1.462857 2.925714-5.851429 4.388571-8.777142 5.851429-5.851429 1.462857-10.24 2.925714-14.628572 0-8.777143-4.388571-14.628571-8.777143-21.942857-14.628572 0 0-1.462857-1.462857-2.925714-1.462857v5.851429c1.462857 5.851429 1.462857 10.24 2.925714 13.165714 4.388571 23.405714-26.331429 26.331429-40.96 16.091428-2.925714-1.462857-4.388571-2.925714-7.314286-4.388571h-1.462857c5.851429 11.702857 10.24 21.942857 21.942857 27.794286 13.165714 5.851429 23.405714-5.851429 33.645715-10.24 13.165714-5.851429 26.331429-5.851429 40.96-5.851429h124.342857c4.388571 0 19.017143-2.925714 21.942857 1.462857 8.777143 2.925714 17.554286 7.314286 24.868571 10.24 1.462857 7.314286 7.314286 7.314286 11.702857 4.388572z" fill="#020864" p-id="1931"></path><path d="M248.685714 498.834286c1.462857-27.794286 7.314286-54.125714 16.091429-78.994286 17.554286-45.348571 45.348571-83.382857 83.382857-112.64 40.96-32.182857 86.308571-51.2 138.971429-55.588571 46.811429-4.388571 92.16 4.388571 134.582857 24.868571 36.571429 17.554286 67.291429 42.422857 93.622857 74.605714 21.942857 27.794286 36.571429 57.051429 46.811428 92.16 5.851429 19.017143 8.777143 39.497143 10.24 59.977143 0 4.388571 5.851429 2.925714 10.24 2.925714 2.925714-7.314286 1.462857-19.017143 0-26.331428-1.462857-13.165714-4.388571-24.868571-8.777142-38.034286-8.777143-32.182857-23.405714-61.44-42.422858-87.771428-45.348571-59.977143-103.862857-98.011429-179.931428-108.251429-59.977143-10.24-118.491429 1.462857-171.154286 32.182857-55.588571 32.182857-95.085714 76.068571-119.954286 134.582857-11.702857 24.868571-16.091429 51.2-19.017142 77.531429 0 5.851429 0 11.702857-1.462858 17.554286 2.925714-1.462857 5.851429-1.462857 7.314286-2.925715 1.462857-2.925714 1.462857-4.388571 1.462857-5.851428 1.462857-27.794286 0 1.462857 0 0zM681.691429 719.725714c-1.462857 1.462857-2.925714 1.462857-2.925715 2.925715-19.017143 14.628571-39.497143 27.794286-61.44 36.571428-33.645714 14.628571-71.68 23.405714-109.714285 21.942857-27.794286 0-54.125714-5.851429-77.531429-11.702857-20.48-5.851429-40.96-14.628571-59.977143-26.331428-8.777143-5.851429-17.554286-11.702857-26.331428-19.017143-2.925714-2.925714-7.314286-8.777143-11.702858-11.702857-2.925714-1.462857-11.702857 0-14.628571 0 1.462857 1.462857 1.462857 2.925714 2.925714 2.925714 10.24 11.702857 21.942857 21.942857 35.108572 32.182857 36.571429 24.868571 77.531429 39.497143 122.88 45.348571 30.72 4.388571 61.44 2.925714 92.16-4.388571 23.405714-4.388571 45.348571-11.702857 65.828571-21.942857 27.794286-11.702857 51.2-32.182857 74.605714-51.2v-1.462857c-11.702857-2.925714-21.942857-2.925714-29.257142 5.851428-1.462857 0 7.314286-8.777143 0 0z" fill="#033203" p-id="1932"></path><path d="M209.188571 697.782857H794.331429c10.24 0 21.942857 2.925714 26.331428-7.314286H200.411429c1.462857 5.851429 2.925714 7.314286 8.777142 7.314286zM215.04 708.022857H789.942857c8.777143 0 23.405714 4.388571 26.331429-7.314286H207.725714c0 5.851429 1.462857 7.314286 7.314286 7.314286zM681.691429 710.948571H337.92c8.777143 8.777143 27.794286 4.388571 38.034286 4.388572h270.628571c11.702857 0 24.868571 1.462857 35.108572-4.388572-114.102857 0-4.388571 2.925714 0 0zM392.045714 492.982857c0 2.925714 103.862857 1.462857 115.565715 1.462857h93.622857c2.925714 0 26.331429 1.462857 20.48-4.388571 0-2.925714-105.325714-1.462857-115.565715-1.462857h-58.514285c-7.314286 0-55.588571-2.925714-55.588572 4.388571zM495.908571 367.177143c1.462857 4.388571 1.462857 10.24 2.925715 13.165714 0 7.314286 16.091429 4.388571 19.017143 0 0-2.925714 1.462857-7.314286 1.462857-10.24 1.462857-10.24 1.462857-19.017143-2.925715-29.257143-1.462857-5.851429 2.925714-10.24 2.925715-16.091428-1.462857-2.925714-19.017143-4.388571-19.017143-1.462857-2.925714 4.388571-1.462857 8.777143 1.462857 11.702857 1.462857 1.462857 1.462857 2.925714 1.462857 4.388571-7.314286 8.777143-8.777143 17.554286-7.314286 27.794286 1.462857 2.925714-1.462857-10.24 0 0zM380.342857 680.228571s0 1.462857 0 0c86.308571 1.462857 171.154286 1.462857 257.462857 1.462858v-1.462858c-84.845714 0-169.691429-1.462857-254.537143-1.462857 0 0-1.462857 1.462857-2.925714 1.462857zM384.731429 672.914286s0 1.462857 0 0c83.382857 1.462857 166.765714 1.462857 251.611428 1.462857V672.914286h-248.685714c-1.462857-1.462857-1.462857 0-2.925714 0zM392.045714 667.062857c80.457143 0 160.914286-1.462857 239.908572-1.462857H387.657143c1.462857 0 2.925714 0 4.388571 1.462857zM624.64 500.297143h-234.057143c39.497143 0 78.994286 1.462857 118.491429 1.462857 38.034286 0 77.531429-1.462857 115.565714-1.462857zM392.045714 656.822857c78.994286 1.462857 156.525714 1.462857 235.52 1.462857v-1.462857H394.971429c-2.925714-1.462857-2.925714-1.462857-2.925715 0zM624.64 649.508571c-2.925714-1.462857-228.205714-1.462857-229.668571 0 1.462857 1.462857 225.28 1.462857 229.668571 0zM703.634286 488.594286h-68.754286c8.777143 8.777143 24.868571 5.851429 36.571429 5.851428 8.777143 0 29.257143 4.388571 32.182857-5.851428-21.942857 0-1.462857 4.388571 0 0zM375.954286 488.594286h-67.291429c11.702857 11.702857 42.422857 5.851429 58.514286 5.851428 4.388571 1.462857 7.314286-2.925714 8.777143-5.851428-21.942857 0-1.462857 2.925714 0 0zM531.017143 536.868571c5.851429 0 8.777143-30.72-2.925714-29.257142-2.925714 1.462857-2.925714 29.257143 2.925714 29.257142zM452.022857 509.074286c0-4.388571-8.777143-4.388571-8.777143 0v19.017143c0 4.388571 1.462857 10.24 7.314286 7.314285 2.925714-1.462857 1.462857-11.702857 1.462857-13.165714v-13.165714zM567.588571 506.148571c-7.314286 0-4.388571 17.554286-4.388571 21.942858 0 10.24 7.314286 7.314286 7.314286 4.388571s2.925714-26.331429-2.925715-26.331429zM471.04 506.148571c-7.314286 0-7.314286 29.257143 0 29.257143 5.851429 0 7.314286-29.257143 0-29.257143zM438.857143 509.074286c0-4.388571-8.777143-4.388571-8.777143 0v19.017143c0 4.388571 1.462857 10.24 7.314286 7.314285 2.925714-1.462857 1.462857-11.702857 1.462857-14.628571v-11.702857zM495.908571 536.868571c7.314286 0 7.314286-29.257143 0-29.257142s-7.314286 29.257143 0 29.257142z" fill="#020864" p-id="1933"></path><path d="M507.611429 506.148571c-7.314286 0-7.314286 30.72 0 30.72s7.314286-30.72 0-30.72zM590.994286 506.148571c-7.314286 0-7.314286 30.72 0 30.72s7.314286-30.72 0-30.72zM608.548571 509.074286c0-4.388571-8.777143-4.388571-8.777142 0v19.017143c0 4.388571 0 10.24 5.851428 7.314285 2.925714-1.462857 1.462857-11.702857 1.462857-14.628571 0-2.925714 0-7.314286 1.462857-11.702857 0-2.925714-1.462857 4.388571 0 0zM399.36 536.868571c7.314286 0 7.314286-29.257143 0-29.257142-5.851429 0-7.314286 29.257143 0 29.257142zM422.765714 506.148571c-7.314286 0-7.314286 30.72 0 30.72s7.314286-30.72 0-30.72z" fill="#020864" p-id="1934"></path><path d="M408.137143 533.942857c0 2.925714 2.925714 2.925714 5.851428 2.925714 2.925714-1.462857 1.462857-14.628571 1.462858-17.554285 0-2.925714 1.462857-11.702857-1.462858-11.702857-1.462857 0-7.314286-1.462857-5.851428 2.925714v23.405714zM614.4 506.148571c-7.314286 0-7.314286 29.257143 0 29.257143s7.314286-29.257143 0-29.257143zM579.291429 536.868571c7.314286 0 7.314286-30.72 0-30.72s-7.314286 30.72 0 30.72zM555.885714 506.148571c-7.314286 0-4.388571 20.48-4.388571 26.331429 0 2.925714 4.388571 2.925714 7.314286 2.925714 2.925714-1.462857 1.462857-11.702857 1.462857-14.628571 0-5.851429 2.925714-14.628571-4.388572-14.628572zM482.742857 506.148571c-7.314286 0-4.388571 21.942857-4.388571 27.794286 0 2.925714 4.388571 2.925714 7.314285 2.925714 2.925714-1.462857 1.462857-11.702857 1.462858-14.628571 0-5.851429 2.925714-16.091429-4.388572-16.091429zM459.337143 506.148571c-5.851429 0-7.314286 27.794286-2.925714 29.257143 11.702857 5.851429 7.314286-21.942857 7.314285-27.794285-1.462857-1.462857-2.925714-1.462857-4.388571-1.462858zM608.548571 476.891429c1.462857 0 4.388571 1.462857 5.851429 1.462857h1.462857c1.462857-1.462857 2.925714-2.925714 2.925714-4.388572 1.462857-2.925714-1.462857-4.388571-2.925714-4.388571-7.314286-1.462857-11.702857-4.388571-19.017143-5.851429-7.314286 0-5.851429 4.388571-2.925714 8.777143 4.388571 1.462857 8.777143 2.925714 14.628571 4.388572 1.462857 0-5.851429-1.462857 0 0zM547.108571 509.074286c0-4.388571-8.777143-4.388571-8.777142 0v19.017143c0 4.388571 0 10.24 7.314285 7.314285 2.925714-1.462857 1.462857-11.702857 1.462857-14.628571v-11.702857zM523.702857 509.074286c0-4.388571-8.777143-4.388571-8.777143 0v19.017143c0 4.388571 0 10.24 7.314286 7.314285 2.925714-1.462857 1.462857-11.702857 1.462857-14.628571v-11.702857zM392.045714 509.074286c0-1.462857-1.462857-1.462857-1.462857-2.925715 0 0-1.462857 0-2.925714 1.462858-1.462857 2.925714-2.925714 5.851429-4.388572 10.24 0 4.388571-2.925714 19.017143 4.388572 19.017142s4.388571-10.24 4.388571-14.628571v-13.165714zM627.565714 536.868571c8.777143 0 2.925714-21.942857 1.462857-27.794285 0-1.462857-1.462857-1.462857-2.925714-2.925715 0 8.777143-1.462857 19.017143-1.462857 27.794286-1.462857 2.925714 1.462857 2.925714 2.925714 2.925714zM412.525714 478.354286l17.554286-4.388572c5.851429 0 4.388571-7.314286-1.462857-7.314285-5.851429 1.462857-10.24 2.925714-14.628572 4.388571-1.462857 0-4.388571 1.462857-5.851428 1.462857-2.925714 2.925714 0 4.388571 1.462857 7.314286 1.462857-1.462857 1.462857-1.462857 2.925714-1.462857 4.388571-1.462857-1.462857 0 0 0zM456.411429 471.04c7.314286 0 10.24 1.462857 14.628571-4.388571-4.388571-4.388571-11.702857-2.925714-19.017143-2.925715-2.925714 0-5.851429 0-7.314286 1.462857-2.925714 2.925714 0 7.314286 2.925715 7.314286 2.925714-1.462857 5.851429-1.462857 8.777143-1.462857zM491.52 471.04h10.24c5.851429 0 4.388571-7.314286 0-7.314286s-33.645714 0-19.017143 7.314286h8.777143zM538.331429 471.04c2.925714 0 5.851429-4.388571 2.925714-5.851429-2.925714-1.462857-8.777143 0-13.165714 0-2.925714 0-14.628571-1.462857-14.628572 2.925715 0 5.851429 20.48 2.925714 24.868572 2.925714zM573.44 471.04c7.314286 0 1.462857-5.851429 0-8.777143H554.422857c-5.851429 0-5.851429 7.314286 0 7.314286 7.314286 1.462857 13.165714 1.462857 19.017143 1.462857zM655.36 503.222857c4.388571 0 39.497143 2.925714 39.497143-2.925714h-43.885714v1.462857c1.462857 0 2.925714 1.462857 4.388571 1.462857z" fill="#020864" p-id="1935"></path><path d="M484.205714 750.445714c2.925714 1.462857 7.314286 1.462857 10.24 0 4.388571-1.462857 4.388571-5.851429 1.462857-8.777143-1.462857 0-1.462857-1.462857-2.925714-1.462857 1.462857-1.462857 2.925714-1.462857 2.925714-2.925714 4.388571-4.388571 1.462857-7.314286-4.388571-7.314286 4.388571 4.388571 0 4.388571 0 7.314286-1.462857 0-2.925714-2.925714-4.388571-4.388571 1.462857-1.462857 2.925714-1.462857 4.388571-2.925715h-4.388571c-4.388571 1.462857-4.388571 4.388571-1.462858 7.314286 0 0 1.462857 1.462857 2.925715 1.462857l-2.925715 2.925714c-5.851429 4.388571-5.851429 7.314286-1.462857 8.777143 2.925714 1.462857-4.388571-1.462857 0 0z m4.388572-7.314285c2.925714 1.462857 4.388571 2.925714 5.851428 4.388571l-2.925714 2.925714c-5.851429 0-10.24-7.314286-2.925714-7.314285 2.925714 1.462857-1.462857 0 0 0zM538.331429 747.52c4.388571-2.925714 5.851429-8.777143 2.925714-11.702857-2.925714-4.388571-7.314286-5.851429-11.702857-4.388572-11.702857 5.851429-2.925714 11.702857 5.851428 11.702858v2.925714c-2.925714 1.462857-5.851429 4.388571-10.24 5.851428 4.388571 0 8.777143-1.462857 13.165715-4.388571z m-4.388572-4.388571c-8.777143 0-8.777143-10.24-1.462857-10.24 5.851429 1.462857 5.851429 8.777143 1.462857 10.24z" fill="#033203" p-id="1936"></path><path d="M320.365714 501.76h43.885715v-1.462857c-16.091429 0-29.257143 0-43.885715 1.462857 0-1.462857 0-1.462857 0 0 1.462857 0 0-1.462857 0 0z" fill="#020864" p-id="1937"></path><path d="M573.44 750.445714c-1.462857 0-2.925714 0-4.388571-1.462857-1.462857 0-1.462857 0-2.925715 1.462857l1.462857 1.462857c2.925714 0 5.851429 0 5.851429-1.462857 7.314286-1.462857 10.24-4.388571 5.851429-10.24v-1.462857c1.462857-1.462857 1.462857-4.388571 1.462857-5.851428-2.925714-4.388571-11.702857-2.925714-11.702857 1.462857 2.925714-1.462857 7.314286-2.925714 10.24 0 1.462857 4.388571-2.925714 4.388571-5.851429 5.851428 1.462857 0 2.925714 0 2.925714 1.462857 2.925714 0 5.851429 1.462857 4.388572 4.388572-2.925714 1.462857-5.851429 2.925714-7.314286 4.388571-1.462857 0 1.462857-1.462857 0 0zM449.097143 751.908571c0-5.851429 4.388571-21.942857-5.851429-17.554285 2.925714 5.851429 1.462857 11.702857 0 17.554285h5.851429c0-4.388571-1.462857 0 0 0z" fill="#033203" p-id="1938"></path><path d="M371.565714 529.554286c-1.462857 1.462857-1.462857 5.851429 1.462857 5.851428 7.314286 0 4.388571-8.777143 4.388572-13.165714h-1.462857c0 2.925714-2.925714 4.388571-4.388572 7.314286-1.462857 1.462857 1.462857-2.925714 0 0zM640.731429 536.868571c2.925714 0 2.925714-2.925714 2.925714-4.388571-1.462857-2.925714-4.388571-7.314286-5.851429-10.24h-1.462857v10.24c-1.462857 5.851429 1.462857 4.388571 4.388572 4.388571zM506.148571 318.902857c2.925714 0 4.388571 1.462857 5.851429-1.462857l-1.462857-1.462857h-8.777143l-1.462857 1.462857 1.462857 1.462857h4.388571z" fill="#020864" p-id="1939"></path><path d="M315.977143 257.462857c2.925714-1.462857 5.851429-4.388571 8.777143-7.314286-7.314286-5.851429-11.702857-10.24-17.554286-14.628571l-1.462857 1.462857c2.925714 7.314286 5.851429 13.165714 8.777143 19.017143-1.462857 1.462857 1.462857 2.925714 1.462857 1.462857 2.925714-1.462857 0 1.462857 0 0z" fill="#033203" p-id="1940"></path><path d="M393.508571 817.737143c-2.925714 1.462857-4.388571 7.314286 0 10.24 1.462857-2.925714 2.925714-5.851429 2.925715-8.777143 1.462857-1.462857 0-2.925714-2.925715-1.462857z" fill="" p-id="1941"></path><path d="M384.731429 817.737143l4.388571 4.388571 2.925714-2.925714c-1.462857-1.462857-2.925714-1.462857-4.388571-2.925714-1.462857 0-2.925714 1.462857-2.925714 1.462857z" fill="" p-id="1942"></path><path d="M662.674286 217.965714c2.925714 1.462857 7.314286 2.925714 8.777143 4.388572 5.851429 0 10.24-2.925714 11.702857-8.777143 1.462857-5.851429 1.462857-10.24-2.925715-11.702857 0 0-10.24-7.314286-10.24-2.925715-2.925714 5.851429-5.851429 10.24-8.777142 14.628572 1.462857 2.925714 1.462857 4.388571 1.462857 4.388571z" fill="#033203" p-id="1943"></path><path d="M494.445714 832.365714c1.462857 0 1.462857 1.462857 2.925715 1.462857 0 0 1.462857-1.462857 2.925714-1.462857-1.462857-1.462857-2.925714-1.462857-2.925714-1.462857-1.462857 0-1.462857 1.462857-2.925715 1.462857z" fill="" p-id="1944"></path><path d="M528.091429 618.788571v-17.554285c0-4.388571-14.628571-2.925714-17.554286-2.925715-2.925714 0-20.48-2.925714-21.942857 1.462858-2.925714 4.388571 0 17.554286 0 23.405714 0 2.925714-1.462857 16.091429 1.462857 17.554286 4.388571 2.925714 16.091429 0 20.48 0 2.925714 0 17.554286 2.925714 17.554286-2.925715v-19.017143z" fill="#020864" p-id="1945"></path><path d="M510.537143 137.508571c-131.657143 0-254.537143 71.68-321.828572 184.32-67.291429 114.102857-68.754286 260.388571-2.925714 377.417143 65.828571 115.565714 191.634286 188.708571 324.754286 187.245715 204.8 0 373.028571-166.765714 374.491428-373.028572C885.028571 305.737143 716.8 137.508571 510.537143 137.508571z m245.76 118.491429l13.165714 13.165714s0 1.462857 1.462857 2.925715c-1.462857 0-2.925714 0-2.925714-1.462858-5.851429-5.851429-5.851429-5.851429-11.702857 0-10.24 8.777143-17.554286 17.554286-27.794286 26.331429-7.314286 7.314286 4.388571 7.314286 1.462857 13.165714-2.925714-2.925714-5.851429-5.851429-7.314285-8.777143l-10.24-10.24s0-1.462857-1.462858-2.925714c7.314286 0 5.851429 10.24 13.165715 1.462857 10.24-8.777143 17.554286-17.554286 27.794285-26.331428 2.925714-2.925714 0-7.314286-2.925714-11.702857 4.388571 2.925714 5.851429 2.925714 7.314286 4.388571z m-48.274286 2.925714c-1.462857-5.851429-5.851429-11.702857-7.314286-16.091428-5.851429-13.165714 10.24-24.868571 21.942858-16.091429 4.388571 4.388571 7.314286 8.777143 11.702857 11.702857-1.462857 2.925714-4.388571 5.851429-5.851429 8.777143 0 0-1.462857 0-2.925714 1.462857v-11.702857c-1.462857-7.314286-10.24-11.702857-16.091429-7.314286-4.388571 2.925714-5.851429 7.314286-4.388571 11.702858 2.925714 5.851429 5.851429 10.24 7.314286 14.628571 2.925714 5.851429 2.925714 10.24 0 14.628571-7.314286 11.702857-19.017143 11.702857-27.794286 1.462858-1.462857-2.925714-2.925714-5.851429-7.314286-5.851429 0 0-1.462857-1.462857 0-2.925714 1.462857-4.388571 4.388571-7.314286 5.851429-11.702857 0-1.462857 1.462857-1.462857 2.925714-1.462858 0 1.462857 1.462857 1.462857 0 2.925715 0 5.851429-2.925714 8.777143 0 14.628571 2.925714 4.388571 8.777143 10.24 14.628571 5.851429 5.851429-4.388571 8.777143-10.24 7.314286-14.628572z m-40.96-67.291428c5.851429 2.925714 11.702857 5.851429 16.091429 10.24 7.314286 4.388571 8.777143 10.24 7.314285 14.628571-1.462857 4.388571-4.388571 7.314286-8.777142 10.24-2.925714 1.462857-10.24 0-10.24 4.388572-1.462857 7.314286-1.462857 13.165714-2.925715 20.48 0 2.925714 1.462857 5.851429 2.925715 8.777142h-2.925715c-5.851429-1.462857-7.314286-4.388571-7.314285-8.777142 1.462857-7.314286 1.462857-14.628571 2.925714-21.942858 0-14.628571-13.165714 8.777143-14.628572 11.702858-1.462857 1.462857-1.462857 4.388571 0 5.851428v2.925714h-2.925714c-4.388571-1.462857-7.314286-4.388571-10.24-5.851428l-1.462857-1.462857c1.462857 0 1.462857-1.462857 2.925714 0 2.925714 1.462857 4.388571 0 4.388572-2.925715 7.314286-11.702857 13.165714-26.331429 20.48-38.034285 1.462857-1.462857 1.462857-2.925714 0-4.388572 0 0 0-1.462857-1.462857-2.925714 4.388571-2.925714 4.388571-2.925714 5.851428-2.925714 5.851429 1.462857-1.462857 0 0 0z m-46.811428-19.017143c10.24 2.925714 17.554286 7.314286 27.794285 11.702857h1.462857c1.462857 1.462857 0 10.24-1.462857 11.702857 0-1.462857-1.462857-4.388571-1.462857-5.851428-1.462857-7.314286-13.165714-16.091429-19.017143-10.24-2.925714 5.851429-4.388571 10.24-5.851428 14.628571v2.925714c4.388571 2.925714 10.24 4.388571 14.628571 0 0-1.462857 1.462857-1.462857 2.925714-2.925714 0 1.462857 1.462857 2.925714 0 2.925714-1.462857 4.388571-2.925714 10.24-5.851428 13.165715 0 1.462857-1.462857 1.462857-2.925714 1.462857v-2.925715c1.462857-5.851429-4.388571-11.702857-11.702858-10.24-2.925714 1.462857-7.314286 16.091429-8.777142 20.48 0 1.462857 0 4.388571 1.462857 4.388572 10.24 2.925714 17.554286 5.851429 26.331428-2.925714 0 0 0 1.462857 1.462857 1.462857-1.462857 1.462857-7.314286 13.165714-10.24 10.24-8.777143-2.925714-17.554286-7.314286-26.331428-10.24-1.462857 0-1.462857-1.462857-2.925714-2.925715 2.925714 0 5.851429-2.925714 7.314285-5.851428 4.388571-11.702857 8.777143-21.942857 11.702857-33.645714 1.462857-1.462857 1.462857-4.388571 2.925715-5.851429-1.462857 2.925714-1.462857 1.462857-4.388572 0l-1.462857-1.462857h4.388572c10.24 1.462857-1.462857 0 0 0z m-51.2-13.165714c4.388571 1.462857 8.777143 1.462857 11.702857 2.925714l1.462857 1.462857-1.462857 1.462857c-5.851429 0-2.925714 32.182857-2.925715 36.571429v1.462857c0-1.462857 1.462857-1.462857 1.462858-2.925714 5.851429-10.24 10.24-17.554286 14.628571-27.794286 1.462857-1.462857 1.462857-4.388571-1.462857-5.851429 0-1.462857 0-1.462857-1.462857-1.462857 4.388571 0 8.777143-1.462857 11.702857 1.462857l-1.462857 1.462857c-2.925714 0-4.388571 2.925714-5.851429 4.388572-7.314286 13.165714-14.628571 27.794286-21.942857 39.497143 0 1.462857-1.462857 2.925714-1.462857 2.925714s-2.925714 0-2.925714-1.462857c0-16.091429 0-33.645714-1.462858-49.737143 2.925714-1.462857 4.388571-4.388571 1.462858-4.388571l-1.462858-2.925715c0 2.925714 1.462857 2.925714 1.462858 2.925715z m-45.348572 51.2c7.314286 0 7.314286 0 8.777143-7.314286 1.462857-10.24 1.462857-19.017143 1.462857-27.794286 0-4.388571 0-8.777143 1.462857-11.702857 0-4.388571-4.388571-4.388571-8.777143-4.388571l-1.462857-1.462858 1.462857-1.462857c5.851429 0 19.017143-1.462857 23.405715 2.925715-13.165714 0-10.24 11.702857-11.702857 21.942857 0 7.314286-5.851429 27.794286 2.925714 30.72 2.925714 0 4.388571-1.462857 5.851428 1.462857-4.388571 0-5.851429 2.925714-11.702857 0-4.388571 0-10.24 0-11.702857-2.925714-2.925714 1.462857-2.925714 0-4.388571 0h4.388571z m-43.885714-49.737143c7.314286 11.702857 11.702857 21.942857 19.017143 32.182857 1.462857 1.462857 1.462857 2.925714 2.925714 4.388571v-2.925714c-1.462857-11.702857-1.462857-20.48-2.925714-32.182857 0-2.925714-1.462857-4.388571-4.388572-4.388572l-1.462857-1.462857 1.462857-1.462857c2.925714 0 7.314286 0 10.24-1.462857l1.462857 1.462857-1.462857 1.462857c-2.925714 0-2.925714 2.925714-2.925714 4.388572 1.462857 8.777143 1.462857 17.554286 1.462857 24.868571 0 5.851429 4.388571 20.48 0 24.868572-1.462857-1.462857-2.925714-1.462857-2.925714-2.925715-8.777143-11.702857-14.628571-26.331429-23.405714-38.034285 0-1.462857-1.462857-1.462857-2.925715-2.925715v2.925715c1.462857 11.702857 1.462857 23.405714 2.925715 35.108571 0 2.925714 1.462857 4.388571 4.388571 4.388571l1.462857 1.462858-1.462857 1.462857c-2.925714 0-7.314286 0-10.24 1.462857 0 0-1.462857-1.462857-2.925714-1.462857l1.462857-1.462857c4.388571 0 4.388571-2.925714 2.925714-5.851429-1.462857-11.702857-1.462857-24.868571-2.925714-36.571429 0-7.314286 0-7.314286-7.314286-10.24 7.314286-1.462857 14.628571-1.462857 17.554286 2.925715 5.851429 11.702857-2.925714-4.388571 0 0z m-61.44 7.314285c4.388571-1.462857 8.777143-1.462857 11.702857-2.925714 0 0 1.462857 0 1.462857 1.462857 0 0 0 1.462857-1.462857 1.462857-2.925714 1.462857-2.925714 2.925714-1.462857 5.851429l8.777143 35.108571c1.462857 7.314286 5.851429 10.24 11.702857 8.777143 7.314286-1.462857 10.24-7.314286 10.24-11.702857-1.462857-5.851429-7.314286-42.422857-11.702857-39.497143 0 0-1.462857 0-1.462857-1.462857l1.462857-1.462857c0-2.925714 2.925714-2.925714 5.851428-2.925714 0 0 1.462857 0 2.925715 1.462857 0 0 0 1.462857-1.462858 1.462857-2.925714 1.462857-2.925714 2.925714-2.925714 5.851429 2.925714 11.702857 5.851429 23.405714 8.777143 33.645714 2.925714 17.554286-24.868571 26.331429-29.257143 8.777143l-8.777143-35.108572c0-2.925714-1.462857-5.851429-4.388571-4.388571l-1.462857-1.462857c0-1.462857 0-1.462857 1.462857-2.925715 4.388571-1.462857-1.462857 1.462857 0 0z m-118.491429 59.977143c1.462857-2.925714 2.925714-2.925714 4.388572-1.462857 11.702857 10.24 24.868571 19.017143 36.571428 30.72 4.388571 4.388571 10.24 2.925714 11.702857-1.462857 1.462857-1.462857 0-2.925714-1.462857-4.388571-5.851429-10.24-11.702857-19.017143-16.091428-29.257143-1.462857-1.462857-5.851429-13.165714-10.24-10.24H321.828571c0-2.925714 5.851429-5.851429 8.777143-7.314286 1.462857 0 2.925714 0 4.388572 1.462857 11.702857 7.314286 21.942857 13.165714 32.182857 21.942857 1.462857 0 1.462857 1.462857 2.925714 1.462857 0-1.462857-1.462857-2.925714-1.462857-2.925714-4.388571-8.777143-10.24-16.091429-13.165714-26.331428-1.462857-2.925714-2.925714-4.388571-5.851429-2.925715h-2.925714s0-1.462857 1.462857-1.462857c2.925714-1.462857 5.851429-4.388571 10.24-5.851428h2.925714c0 1.462857 0 1.462857-1.462857 1.462857-2.925714 1.462857-2.925714 4.388571-1.462857 5.851428l21.942857 39.497143V241.371429c-1.462857 0-2.925714 0-2.925714-1.462858-13.165714-7.314286-27.794286-16.091429-38.034286-26.331428-1.462857 0-1.462857-1.462857-2.925714-1.462857 0 1.462857 1.462857 1.462857 1.462857 2.925714 5.851429 10.24 10.24 20.48 16.091429 30.72 1.462857 2.925714 2.925714 5.851429 7.314285 2.925714h1.462857s0 1.462857-1.462857 1.462857c0 0-1.462857 1.462857-2.925714 1.462858-7.314286 2.925714-14.628571 11.702857-21.942857 13.165714 0-1.462857 1.462857-5.851429-1.462857-5.851429-4.388571-2.925714-7.314286-5.851429-10.24-8.777143H321.828571c-2.925714 1.462857-4.388571 4.388571-7.314285 5.851429-1.462857 1.462857-1.462857 2.925714-1.462857 4.388571 1.462857 4.388571 4.388571 14.628571 11.702857 11.702858 0 0 1.462857 1.462857 1.462857 2.925714-2.925714 2.925714-5.851429 4.388571-8.777143 7.314286h-1.462857v-1.462858-5.851428c-7.314286-14.628571-11.702857-30.72-19.017143-43.885714 1.462857 0 1.462857-1.462857 2.925714-2.925715 1.462857-2.925714-1.462857 1.462857 0 0z m-40.96 38.034286c0 4.388571 1.462857 5.851429 2.925715 7.314286 2.925714 1.462857 11.702857 14.628571 13.165714 10.24 2.925714-2.925714 5.851429-7.314286 10.24-10.24 2.925714-2.925714-11.702857-19.017143-16.091429-16.091429h-2.925714v-1.462857c2.925714-2.925714 5.851429-5.851429 7.314286-8.777143h2.925714v2.925714c-2.925714 7.314286 24.868571 29.257143 30.72 33.645715 2.925714 1.462857 4.388571 4.388571 7.314286 2.925714 0 0 1.462857 0 2.925714 1.462857l-10.24 10.24h-1.462857v-1.462857c2.925714-5.851429-8.777143-11.702857-11.702857-14.628571-7.314286-7.314286-10.24-1.462857-16.091429 5.851428-4.388571 4.388571 11.702857 14.628571 13.165714 17.554286 1.462857 1.462857 2.925714 1.462857 4.388572 0h2.925714v1.462857l-10.24 10.24c0-1.462857-1.462857-1.462857-1.462857-1.462857 1.462857-2.925714 0-5.851429-2.925714-7.314286-4.388571-4.388571-30.72-33.645714-35.108572-29.257143 0 0-1.462857 0-2.925714-1.462857 5.851429-5.851429 10.24-8.777143 13.165714-11.702857z m-40.96 48.274286c2.925714-4.388571 5.851429-7.314286 8.777143-10.24 1.462857 1.462857 1.462857 1.462857 1.462857 2.925714-1.462857 4.388571 1.462857 5.851429 4.388572 7.314286 8.777143 7.314286 17.554286 11.702857 26.331428 19.017143 0 0 1.462857 0 1.462857 1.462857 11.702857 7.314286 24.868571-7.314286 11.702858-16.091429l-30.72-21.942857H234.057143v-2.925714c1.462857-2.925714 4.388571-5.851429 5.851428-8.777143l1.462858 1.462857c-1.462857 4.388571 1.462857 7.314286 4.388571 8.777143 8.777143 5.851429 16.091429 11.702857 24.868571 17.554286 11.702857 8.777143 10.24 21.942857-2.925714 27.794285-4.388571 2.925714-10.24 1.462857-13.165714-1.462857-10.24-7.314286-19.017143-13.165714-29.257143-20.48-2.925714-1.462857-4.388571-4.388571-7.314286 0h-1.462857c1.462857-2.925714 1.462857-4.388571 1.462857-4.388571zM197.485714 351.085714h2.925715c0 1.462857 1.462857 2.925714 1.462857 2.925715 10.24 4.388571 17.554286 7.314286 27.794285 10.24h1.462858c-5.851429-5.851429-19.017143-21.942857-29.257143-16.091429l-1.462857-1.462857c5.851429-10.24 4.388571-5.851429 11.702857-2.925714 8.777143 2.925714 14.628571 5.851429 23.405714 8.777142h2.925714c-1.462857-1.462857-4.388571-2.925714-5.851428-4.388571-2.925714-1.462857-17.554286-16.091429-19.017143-11.702857h-2.925714v-1.462857c1.462857-2.925714 2.925714-4.388571 4.388571-7.314286l1.462857-1.462857s0 1.462857 1.462857 1.462857c1.462857 1.462857 1.462857 4.388571 2.925715 5.851429 11.702857 10.24 23.405714 17.554286 33.645714 27.794285l4.388571 4.388572h-5.851428c-8.777143-2.925714-14.628571-5.851429-23.405715-8.777143h-1.462857c2.925714 1.462857 4.388571 4.388571 7.314286 5.851428 5.851429 4.388571 10.24 8.777143 14.628571 11.702858 1.462857 1.462857 1.462857 2.925714 1.462858 2.925714h-4.388572c-14.628571-5.851429-29.257143-10.24-43.885714-14.628572-2.925714-1.462857-4.388571-2.925714-7.314286 0l-1.462857-1.462857c0-5.851429 1.462857-8.777143 2.925714-10.24z m209.188572 468.114286c-2.925714-1.462857-4.388571 0-4.388572 2.925714-1.462857 4.388571-2.925714 8.777143-4.388571 11.702857 0 1.462857 0 2.925714 1.462857 4.388572 1.462857-2.925714 4.388571-4.388571 5.851429-7.314286h1.462857c0 1.462857 0 4.388571-1.462857 5.851429-2.925714 4.388571-7.314286 8.777143-10.24 13.165714-1.462857 1.462857-2.925714 1.462857-4.388572 1.462857 0-5.851429 0-10.24 1.462857-17.554286-11.702857 0-29.257143 5.851429-38.034285-2.925714 0-1.462857 0-1.462857-1.462858-2.925714H356.937143c7.314286 2.925714 26.331429 7.314286 30.72-1.462857v-2.925715h-1.462857c-1.462857 0-8.777143 2.925714-8.777143 0 1.462857-2.925714 2.925714-5.851429 5.851428-8.777142-1.462857 0-5.851429-2.925714-8.777142-1.462858-4.388571 0-5.851429-2.925714-5.851429-7.314285h2.925714c8.777143 1.462857 16.091429 4.388571 24.868572 7.314285 7.314286 2.925714 13.165714-14.628571 14.628571-19.017142 0-1.462857 1.462857-1.462857 1.462857-1.462858 5.851429 2.925714 5.851429 4.388571 2.925715 10.24-2.925714 4.388571-5.851429 7.314286-8.777143 11.702858-1.462857 1.462857-2.925714 4.388571 0 4.388571 1.462857 0 2.925714 1.462857 2.925714 2.925714-1.462857-2.925714-2.925714-2.925714-2.925714-2.925714z m-39.497143 2.925714c1.462857-1.462857 4.388571-1.462857 5.851428-2.925714 0 0 1.462857 0 1.462858 1.462857-1.462857 1.462857-1.462857 4.388571-2.925715 5.851429h-4.388571c-1.462857-1.462857-1.462857-2.925714 0-4.388572z m21.942857-19.017143c4.388571 0 7.314286 0 10.24 1.462858 1.462857 0 1.462857 1.462857 2.925714 2.925714-5.851429 2.925714-13.165714 2.925714-13.165714-4.388572 2.925714 0 0 4.388571 0 0z m29.257143 17.554286h-4.388572c0-1.462857 0-2.925714 1.462858-2.925714 0-1.462857 1.462857-1.462857 1.462857-1.462857 1.462857-1.462857 1.462857-2.925714 2.925714-2.925715 1.462857 1.462857 1.462857 2.925714 2.925714 4.388572-1.462857 0-2.925714 1.462857-4.388571 2.925714-1.462857 0 1.462857-1.462857 0 0z m61.44 24.868572c-2.925714 5.851429-4.388571 11.702857-7.314286 17.554285-2.925714 2.925714-8.777143 4.388571-5.851428-2.925714 2.925714-8.777143 5.851429-16.091429 10.24-24.868571 0-1.462857 1.462857-1.462857 1.462857-1.462858 2.925714 2.925714 2.925714 5.851429 1.462857 11.702858s1.462857-5.851429 0 0z m-1.462857-16.091429c0-4.388571 1.462857-8.777143 2.925714-11.702857 2.925714 0 1.462857 5.851429-2.925714 11.702857z m26.331428 38.034286h-5.851428c1.462857-4.388571 1.462857-7.314286 2.925714-10.24 2.925714 0 4.388571 2.925714 4.388571 5.851428-1.462857 1.462857-1.462857 4.388571-1.462857 4.388572z m2.925715-42.422857c-1.462857 1.462857-2.925714 1.462857-2.925715 2.925714-1.462857 1.462857-1.462857 2.925714 1.462857 4.388571 2.925714 0 2.925714 5.851429 0 5.851429l-1.462857 1.462857c1.462857 4.388571-2.925714 7.314286-4.388571 11.702857v1.462857c1.462857-1.462857 2.925714-1.462857 2.925714-2.925714 1.462857 0 2.925714-1.462857 4.388572-1.462857 0 0 1.462857 1.462857 2.925714 1.462857 0 1.462857-1.462857 1.462857-1.462857 2.925714-5.851429 2.925714-11.702857 5.851429-16.091429 11.702857h-1.462857c1.462857-2.925714 5.851429-7.314286 0-10.24 2.925714-1.462857 4.388571-1.462857 4.388571-1.462857 1.462857 0 1.462857-1.462857 1.462858-2.925714h-7.314286c0-1.462857 1.462857-2.925714 1.462857-4.388571 1.462857-2.925714 2.925714-4.388571 4.388571-7.314286 0-4.388571-2.925714-5.851429-5.851428-7.314286 5.851429-1.462857 10.24-2.925714 10.24-10.24 1.462857 1.462857 2.925714 1.462857 2.925714 1.462857 0-1.462857 1.462857-2.925714 1.462857-2.925714 2.925714 0 2.925714 2.925714 5.851429 0 0 0 0-1.462857 1.462857-2.925714 0-1.462857 1.462857-1.462857 2.925714-2.925715 0 1.462857 1.462857 2.925714 1.462857 2.925715l-8.777142 8.777143z m77.531428 26.331428c-2.925714 0-4.388571-4.388571-7.314286-4.388571-4.388571 0-5.851429 7.314286-10.24 8.777143h-2.925714c0-4.388571 8.777143-7.314286 8.777143-11.702858h-1.462857c-1.462857 1.462857-5.851429 2.925714-8.777143 2.925715l-1.462857-1.462857c1.462857-1.462857 2.925714-1.462857 4.388571-2.925715 1.462857 0 2.925714 0 2.925715-1.462857 5.851429-2.925714 1.462857-8.777143 1.462857-13.165714h2.925714c2.925714 1.462857 2.925714 4.388571 2.925714 7.314286 2.925714 0 4.388571 1.462857 5.851429 1.462857-2.925714 2.925714-4.388571 5.851429-7.314286 8.777143 4.388571 1.462857 10.24 1.462857 10.24 5.851428 2.925714 0 1.462857 0 0 0z m46.811429-35.108571c0-4.388571-4.388571-8.777143 2.925714-11.702857 5.851429 0 7.314286 4.388571 2.925714 8.777142v2.925715c0 1.462857-1.462857 2.925714-2.925714 2.925714-2.925714-1.462857-2.925714-1.462857-2.925714-2.925714z m35.108571 20.48c-1.462857 2.925714-8.777143 4.388571-11.702857 0 2.925714-2.925714 7.314286-2.925714 4.388571-8.777143-1.462857 0-2.925714 1.462857-2.925714 1.462857-1.462857 1.462857-2.925714 4.388571-4.388571 4.388571-1.462857 1.462857-2.925714 0-4.388572 0 0-2.925714 4.388571-4.388571 4.388572-7.314285 4.388571-4.388571 4.388571-4.388571 1.462857-8.777143 0-4.388571 0-7.314286 2.925714-11.702857 0 0-1.462857 0-1.462857-1.462857-1.462857 1.462857-2.925714 2.925714-2.925714 4.388571-2.925714 5.851429-7.314286 11.702857-10.24 16.091429-2.925714 4.388571-7.314286 4.388571-11.702857 1.462857 8.777143-4.388571 11.702857-11.702857 17.554285-19.017143l-1.462857-1.462857h-4.388571c-1.462857-1.462857-1.462857-4.388571-2.925715-5.851429 1.462857-1.462857 1.462857-2.925714 2.925715-4.388571 4.388571-1.462857 7.314286-1.462857 7.314285-7.314286-4.388571 1.462857-7.314286 1.462857-10.24 2.925714-1.462857-2.925714-2.925714-4.388571-2.925714-7.314285 7.314286 0 1.462857-5.851429 5.851429-10.24h2.925714c1.462857 1.462857 1.462857 2.925714 1.462857 4.388571v1.462857h1.462857l2.925715-2.925714c2.925714-5.851429 11.702857 0 8.777142 4.388571-4.388571 7.314286-5.851429 11.702857-5.851428 14.628572l2.925714-2.925715c1.462857 0 2.925714-1.462857 2.925714 0 1.462857 0 1.462857 1.462857 1.462858 2.925715-2.925714 4.388571-5.851429 11.702857-1.462858 16.091428 1.462857-1.462857 2.925714-1.462857 4.388572-2.925714h2.925714c0 5.851429-7.314286 4.388571-2.925714 10.24 1.462857 11.702857 4.388571 14.628571 2.925714 17.554286z m172.617143-370.102857c-1.462857 11.702857-2.925714 24.868571-5.851429 36.571428-5.851429 21.942857-17.554286 38.034286-38.034285 46.811429-5.851429 2.925714-8.777143 5.851429-7.314286 11.702857v58.514286c0 4.388571-2.925714 23.405714 0 26.331428 4.388571 4.388571 11.702857 0 16.091429 5.851429 4.388571 8.777143 10.24 14.628571 14.628571 23.405714 1.462857 2.925714 5.851429 4.388571 10.24 4.388571 2.925714 0 2.925714 1.462857 1.462857 2.925715-5.851429 8.777143-10.24 16.091429-14.628571 24.868571-4.388571 4.388571-16.091429 1.462857-20.48 1.462857h-26.331429c-14.628571 0-36.571429-4.388571-49.737143 2.925715-35.108571 32.182857-74.605714 57.051429-119.954285 73.142857-38.034286 11.702857-77.531429 17.554286-118.491429 13.165714-33.645714-2.925714-67.291429-11.702857-98.011429-26.331429-32.182857-14.628571-58.514286-33.645714-81.92-59.977142-8.777143-8.777143-36.571429-4.388571-48.274285-4.388572-10.24 0-46.811429 5.851429-51.2-4.388571-4.388571-7.314286-8.777143-13.165714-11.702857-20.48 0-1.462857-1.462857-1.462857-2.925715-4.388572 4.388571 0 10.24 1.462857 13.165715-2.925714 4.388571-8.777143 8.777143-14.628571 11.702857-23.405714 2.925714-5.851429 8.777143-1.462857 13.165714-5.851429 4.388571-4.388571 1.462857-29.257143 1.462857-36.571428v-38.034286c0-8.777143 2.925714-19.017143-7.314286-23.405714-17.554286-8.777143-29.257143-23.405714-35.108571-40.96-5.851429-10.24-8.777143-24.868571-11.702857-38.034286v-7.314286l1.462857-1.462857c0 1.462857 1.462857 2.925714 1.462857 4.388571 13.165714 14.628571 30.72 26.331429 49.737143 35.108572 4.388571 2.925714 5.851429 1.462857 5.851429-2.925714 2.925714-57.051429 21.942857-109.714286 55.588571-156.525715 58.514286-76.068571 152.137143-119.954286 248.685714-111.177143 76.068571 7.314286 140.434286 39.497143 190.171429 98.011429 27.794286 32.182857 46.811429 67.291429 57.051428 106.788571 5.851429 21.942857 10.24 43.885714 10.24 67.291429 19.017143-10.24 32.182857-23.405714 46.811429-38.034286v2.925715z m-29.257143-141.897143c1.462857 0 2.925714 1.462857 2.925714 1.462857 1.462857 2.925714 2.925714 5.851429 5.851429 10.24v2.925714h-1.462857c-2.925714-5.851429-17.554286 14.628571-20.48 16.091429h2.925714c7.314286-1.462857 13.165714-1.462857 20.48-2.925715 2.925714 0 4.388571-1.462857 2.925714-4.388571 0 0 0-1.462857 1.462858-1.462857 0 0 1.462857 0 1.462857 1.462857l4.388571 8.777143v4.388571c-4.388571-7.314286-10.24-4.388571-14.628571-2.925714-4.388571 0-43.885714 4.388571-36.571429 14.628571v2.925715c-1.462857 0-1.462857-1.462857-2.925714-1.462857-2.925714-4.388571-4.388571-8.777143-7.314286-11.702858v-2.925714c1.462857 0 2.925714 0 2.925714 1.462857 1.462857 2.925714 2.925714 1.462857 5.851429 1.462857 8.777143-4.388571 16.091429-10.24 21.942857-17.554285 1.462857-2.925714 4.388571-5.851429 7.314286-8.777143 0-2.925714 2.925714-5.851429 2.925714-11.702857z m-23.405714-36.571429c5.851429 7.314286 11.702857 14.628571 16.091428 21.942857 1.462857 4.388571-5.851429 10.24-8.777142 11.702857h-1.462858c0-1.462857 1.462857-2.925714 2.925715-4.388571 1.462857-2.925714 2.925714-5.851429 1.462857-10.24-1.462857-2.925714-2.925714-4.388571-5.851429-1.462857-10.24 7.314286-17.554286 13.165714-27.794285 20.48-2.925714 1.462857-13.165714 5.851429-8.777143 11.702857v1.462857h-1.462857c-2.925714-4.388571-5.851429-8.777143-10.24-11.702857v-1.462857h2.925714c5.851429 2.925714 5.851429 2.925714 10.24 0 11.702857-8.777143 20.48-14.628571 32.182857-23.405714 1.462857-1.462857 2.925714-2.925714 2.925714-4.388572-4.388571-4.388571-8.777143-4.388571-16.091428-4.388571V292.571429c2.925714-1.462857 5.851429-2.925714 11.702857-4.388572-2.925714-1.462857-1.462857 0 0 0 4.388571 7.314286-1.462857 0 0 0z" fill="#033203" p-id="1946"></path><path d="M912.822857 514.925714c0-223.817143-178.468571-402.285714-394.971428-405.211428-229.668571-5.851429-409.6 177.005714-412.525715 393.508571 0 13.165714-1.462857 29.257143 1.462857 42.422857 13.165714 171.154286 134.582857 310.125714 292.571429 354.011429 80.457143 21.942857 168.228571 20.48 247.222857-10.24C801.645714 835.291429 912.822857 687.542857 912.822857 514.925714zM507.611429 901.12C288.182857 899.657143 118.491429 719.725714 119.954286 512 121.417143 292.571429 299.885714 122.88 510.537143 122.88c217.965714 1.462857 387.657143 179.931429 386.194286 390.582857-1.462857 217.965714-177.005714 387.657143-389.12 387.657143-219.428571-1.462857 212.114286 0 0 0z" fill="#050B64" p-id="1947"></path></svg>